<svg width="81" height="48" viewBox="0 0 81 48" fill="none" xmlns="http://www.w3.org/2000/svg">
<path d="M13.3125 2.125L13.5 1.8125C13.6458 1.54167 13.875 1.40625 14.1875 1.40625C14.2292 1.40625 14.3854 1.44792 14.6562 1.53125C14.6146 1.48958 14.5938 1.42708 14.5938 1.34375C14.5938 1.09375 14.7188 0.96875 14.9688 0.96875H15.0938C15.1354 0.96875 15.375 0.90625 15.8125 0.78125L17.9688 0.53125C18.4896 0.53125 19.1354 0.65625 19.9062 0.90625H20.3438L21.1875 1.15625C21.5625 1.51042 21.8333 1.70833 22 1.75C22.1667 1.79167 22.25 1.85417 22.25 1.9375C22.375 2.14583 22.6354 2.39583 23.0312 2.6875L23.9375 3.65625L24.0625 3.90625C24.2292 4.21875 24.4271 4.55208 24.6562 4.90625C24.9062 5.23958 25.0312 5.78125 25.0312 6.53125L24.875 6.90625C25.1042 7.01042 25.2188 7.10417 25.2188 7.1875L25.0312 8.3125V9.28125C25.0312 9.67708 24.9688 10.0208 24.8438 10.3125C24.7396 10.6042 24.6875 10.9271 24.6875 11.2812C24.6875 11.3646 24.5417 11.5938 24.25 11.9688V12.0312L24.375 12.875C24.375 12.9583 24.2812 13.0938 24.0938 13.2812C23.9062 13.4688 23.8125 13.6146 23.8125 13.7188C23.8125 14.1562 23.6979 14.4896 23.4688 14.7188C23.4479 15.1562 23.1979 15.7083 22.7188 16.375C22.2396 17.0208 21.9375 17.5729 21.8125 18.0312C21.7083 18.4896 21.4271 19.0729 20.9688 19.7812C20.8021 20.3021 20.6875 20.6771 20.625 20.9062C20.5625 21.1354 20.3333 21.4271 19.9375 21.7812C19.5625 22.1146 19.375 22.5625 19.375 23.125C19.25 23.5417 18.9583 23.8542 18.5 24.0625L17.7812 24.7188V25.0938C17.7812 25.5312 17.5312 26 17.0312 26.5L15.9688 28.6875C15.7604 29.1042 15.4896 29.3125 15.1562 29.3125L15.0312 29.4375C14.9688 30.0417 14.8646 30.4375 14.7188 30.625C14.5729 30.8125 14.4167 31.0312 14.25 31.2812C14.0833 31.5312 13.9271 31.7604 13.7812 31.9688C13.6354 32.1562 13.4792 32.4688 13.3125 32.9062C13.1458 33.3229 12.9062 33.6875 12.5938 34L12.2812 34.6875V34.9375C12.2812 35.5 12.0938 35.7812 11.7188 35.7812C11.6562 35.7812 11.5417 35.7604 11.375 35.7188H11.3125C11.4375 36.1562 11.5 36.4792 11.5 36.6875C11.5 36.8125 11.2083 37.4688 10.625 38.6562L10.5 39.125V39.625C10.1875 39.9583 9.97917 40.2604 9.875 40.5312C9.77083 40.7812 9.60417 40.9583 9.375 41.0625C9.14583 41.1667 9.03125 41.2396 9.03125 41.2812L9.15625 41.4688V41.5938L8.9375 42.5625L9.09375 43.7188C9.09375 43.8021 9 44.0208 8.8125 44.375C9.5 44.875 9.84375 45.4062 9.84375 45.9688C9.84375 46.8646 9.47917 47.3958 8.75 47.5625H8.5625L7.9375 47.625C7.20833 47.625 6.69792 47.5208 6.40625 47.3125C6.11458 47.1042 5.75 46.7812 5.3125 46.3438L4.90625 46.0938C4.78125 46.0104 4.67708 45.8542 4.59375 45.625L4.28125 45.3125C3.84375 44.7708 3.625 43.8958 3.625 42.6875C3.625 42.5625 3.71875 42.4167 3.90625 42.25L3.96875 42.0625L3.90625 41.4688C3.90625 41.3646 4.13542 40.6875 4.59375 39.4375L5.5 37.5625C6 36.5417 6.34375 35.9479 6.53125 35.7812C6.59375 35.4479 6.69792 35.0625 6.84375 34.625L7.03125 34.5C7.07292 34.2083 7.22917 33.8958 7.5 33.5625C7.79167 33.2083 8 32.7917 8.125 32.3125C8.41667 32.2708 8.5625 32.2083 8.5625 32.125C8.5625 32.0833 8.54167 32 8.5 31.875V31.75C8.5 31.375 8.64583 31.0521 8.9375 30.7812C9.25 30.4896 9.47917 30.1562 9.625 29.7812C9.77083 29.3854 9.9375 29.0938 10.125 28.9062C10.3333 28.7188 10.5208 28.3854 10.6875 27.9062C10.8333 27.7604 11.0417 27.6562 11.3125 27.5938C11.5833 27.5104 11.7188 27.4062 11.7188 27.2812C11.7188 27.2396 11.625 27.0417 11.4375 26.6875C12 25.3958 12.6042 24.3958 13.25 23.6875C13.3333 23.5625 13.4167 23.3646 13.5 23.0938C13.5833 22.8021 13.75 22.5938 14 22.4688C14.2292 21.7604 14.5 21.1771 14.8125 20.7188C15.125 20.2604 15.4062 19.7604 15.6562 19.2188C15.9271 18.6562 16.25 18.375 16.625 18.375L16.75 18.1875L16.6875 17.5312C16.6875 17.5104 16.7708 17.3125 16.9375 16.9375C17.125 16.5625 17.2917 16.3542 17.4375 16.3125C17.5833 16.2708 17.7604 16.1042 17.9688 15.8125L17.7188 15.3125C17.8021 15.25 17.875 15.1458 17.9375 15C18 14.8542 18.0729 14.7812 18.1562 14.7812C18.6771 14.4896 18.9375 14.1771 18.9375 13.8438C18.9375 13.7604 18.9167 13.625 18.875 13.4375V13.3125C18.875 13.1875 19.0625 12.9167 19.4375 12.5C19.8333 12.0625 20.0312 11.5417 20.0312 10.9375C20.0729 10.6458 20.1979 10.375 20.4062 10.125C20.6146 9.875 20.7188 9.66667 20.7188 9.5C20.7188 9.35417 20.7812 9.19792 20.9062 9.03125L20.7812 8.25C21.1771 7.64583 21.375 7.09375 21.375 6.59375C21.375 6.55208 21.3229 6.44792 21.2188 6.28125C21.1146 6.11458 21.0625 5.89583 21.0625 5.625C21.0625 5.5 20.9479 5.33333 20.7188 5.125L20.5938 4.8125C19.9479 4.58333 19.5312 4.375 19.3438 4.1875C19.1562 4 18.6354 3.90625 17.7812 3.90625L17.2188 4.03125L16.75 3.90625C16.625 3.98958 16.5208 4.03125 16.4375 4.03125H16.375L16.0625 3.96875C15.7083 3.96875 15.2083 4.11458 14.5625 4.40625C13.9375 4.67708 13.5208 4.8125 13.3125 4.8125C12.6667 4.8125 12.2292 5 12 5.375C11.7917 5.72917 11.625 5.90625 11.5 5.90625L11.1875 5.78125H11.125C10.9583 5.78125 10.8125 6.07292 10.6875 6.65625L10.625 6.78125C9.8125 7.23958 9.16667 7.70833 8.6875 8.1875L6.65625 10.3125C5.96875 11.0208 5.59375 11.5 5.53125 11.75C5.46875 11.9792 5.26042 12.2083 4.90625 12.4375C4.57292 13.0417 4.40625 13.4688 4.40625 13.7188C4.40625 14.2604 4.29167 14.6354 4.0625 14.8438C3.83333 15.0312 3.71875 15.1875 3.71875 15.3125C3.71875 15.3958 3.73958 15.4792 3.78125 15.5625C3.82292 15.6458 3.90625 15.875 4.03125 16.25V16.4062C4.03125 16.6562 3.94792 16.875 3.78125 17.0625C3.63542 17.25 3.5625 17.3646 3.5625 17.4062C3.5625 17.4688 3.73958 17.6875 4.09375 18.0625C4.46875 18.4375 4.65625 18.7083 4.65625 18.875C4.65625 19.4375 4.40625 19.9583 3.90625 20.4375C3.42708 20.8958 2.91667 21.125 2.375 21.125C1.89583 21.125 1.51042 21.0104 1.21875 20.7812C0.947917 20.5521 0.8125 19.8542 0.8125 18.6875L0.875 17.875L1.15625 16.9688L1.09375 16C1.09375 15.9167 1.29167 15.5625 1.6875 14.9375C2.08333 14.2917 2.33333 13.8229 2.4375 13.5312C2.8125 12.3021 3.38542 11.3542 4.15625 10.6875C4.32292 10.5625 4.40625 10.4167 4.40625 10.25C4.40625 9.95833 4.53125 9.67708 4.78125 9.40625C4.78125 9.32292 4.92708 9.15625 5.21875 8.90625C5.51042 8.65625 5.6875 8.39583 5.75 8.125C5.83333 7.83333 6.02083 7.64583 6.3125 7.5625C6.625 7.47917 6.84375 7.19792 6.96875 6.71875C7.44792 6.13542 8.02083 5.66667 8.6875 5.3125C9 4.72917 9.36458 4.36458 9.78125 4.21875L10.625 3.65625L10.8125 3.34375C10.9375 3.21875 11.1042 3.11458 11.3125 3.03125C11.5208 2.92708 11.7188 2.77083 11.9062 2.5625C12.4896 2.27083 12.875 2.125 13.0625 2.125H13.3125ZM50.5375 13.25L51.0687 12.75C51.4021 11.4167 51.9333 10.6458 52.6625 10.4375L52.85 10.25C52.6 10 52.475 9.78125 52.475 9.59375C52.475 9.51042 52.5167 9.36458 52.6 9.15625L52.725 8.53125C52.7667 8.30208 52.9229 7.9375 53.1937 7.4375C53.4646 6.91667 53.6521 6.0625 53.7562 4.875V4.6875C53.7562 4.25 53.5375 3.52083 53.1 2.5V2.375C53.1 2 53.225 1.625 53.475 1.25C53.7458 0.854167 54.0062 0.65625 54.2562 0.65625C55.8396 0.65625 56.7771 0.947917 57.0687 1.53125C57.3812 2.09375 57.6625 2.5 57.9125 2.75C58.475 3.14583 58.7562 3.95833 58.7562 5.1875C58.7562 5.95833 58.6 6.47917 58.2875 6.75C57.9958 7 57.7979 7.26042 57.6937 7.53125C57.5896 7.80208 57.4229 8.0625 57.1937 8.3125C56.9854 8.54167 56.8812 8.67708 56.8812 8.71875L57.0062 9.34375C57.0062 9.82292 56.8396 10.125 56.5062 10.25V10.4375H56.8187C57.0271 10.4375 57.1937 10.375 57.3187 10.25C57.4646 10.125 57.7667 10 58.225 9.875C58.7042 9.75 59.0375 9.61458 59.225 9.46875C59.4125 9.30208 59.5792 9.1875 59.725 9.125C59.8917 9.0625 60.0792 8.96875 60.2875 8.84375L62.1625 7.8125C62.8083 7.45833 63.4333 7.15625 64.0375 6.90625C64.6625 6.65625 65.1417 6.36458 65.475 6.03125L66.5375 5.71875L67.0687 5.78125C67.1521 5.78125 67.2875 5.63542 67.475 5.34375C67.6625 5.03125 67.8292 4.875 67.975 4.875L68.35 4.9375C68.6833 4.77083 68.9125 4.6875 69.0375 4.6875L69.4437 4.625L70.2562 3.90625L70.9125 3.84375C71.4958 3.32292 72.1521 3.09375 72.8812 3.15625C72.9854 3.09375 73.1521 2.95833 73.3812 2.75C73.6104 2.54167 73.8708 2.4375 74.1625 2.4375C74.225 2.4375 74.4021 2.35417 74.6937 2.1875L75.1937 1.875C75.3604 1.64583 75.5479 1.51042 75.7562 1.46875L76.5375 1.21875C76.7458 1.09375 76.8917 1.03125 76.975 1.03125L77.3812 1.15625C78.0062 0.65625 78.475 0.40625 78.7875 0.40625C79.975 0.40625 80.5687 0.947917 80.5687 2.03125C80.5687 3.01042 80.1625 3.91667 79.35 4.75L77.4437 5.90625C77.4021 5.92708 77.1208 5.98958 76.6 6.09375C76.0792 6.17708 75.0583 6.60417 73.5375 7.375L73.0687 7.3125C72.8604 7.52083 72.6521 7.625 72.4437 7.625L72.0687 7.5625C71.6312 7.77083 71.2667 7.90625 70.975 7.96875C70.7042 8.03125 70.3396 8.19792 69.8812 8.46875C69.4437 8.71875 68.9333 8.91667 68.35 9.0625C67.7875 9.20833 67.3187 9.39583 66.9437 9.625C66.5896 9.83333 66.3083 9.9375 66.1 9.9375H65.7875C65.6208 9.9375 64.8917 10.2292 63.6 10.8125C63.225 10.9583 62.9646 11.0521 62.8187 11.0938C62.6729 11.1354 62.2979 11.2604 61.6937 11.4688L60.2875 12.2812C60.2042 12.3021 59.7979 12.5 59.0687 12.875H58.475C58.4125 12.875 58.0375 13.1042 57.35 13.5625C57.3083 13.5625 57.2354 13.5833 57.1312 13.625H57.0687L56.6312 13.5625C56.5479 13.5625 56.3917 13.6667 56.1625 13.875C55.9542 14.0625 55.6729 14.2083 55.3187 14.3125C54.9646 14.4167 54.7562 14.5625 54.6937 14.75L54.1937 15.7188C54.0062 16.0521 53.8187 16.2708 53.6312 16.375C53.4646 16.4583 53.3083 16.8021 53.1625 17.4062L51.3812 21.0625L51.0062 21.25C51.0896 21.6042 51.1312 21.8021 51.1312 21.8438C51.0479 21.9688 50.9125 22.2396 50.725 22.6562C50.5583 23.0521 50.4125 23.3229 50.2875 23.4688C50.1625 23.6146 49.975 23.9896 49.725 24.5938C51.4542 25.6771 52.3917 26.1875 52.5375 26.125L52.6625 26.25V26.4375C52.6625 26.6458 52.7875 26.8021 53.0375 26.9062C53.3083 26.9896 53.5167 27.0833 53.6625 27.1875C53.8083 27.2917 54.1417 27.3438 54.6625 27.3438L55.4125 28.0938L55.7875 28.0312C55.9542 28.0312 56.1937 28.1458 56.5062 28.375C56.8396 28.5833 57.1937 28.7708 57.5687 28.9375C57.9646 29.1042 58.2458 29.2604 58.4125 29.4062C58.6 29.5521 58.8917 29.6771 59.2875 29.7812C59.6833 29.8854 59.8812 29.9688 59.8812 30.0312C59.8812 30.4062 60.3812 30.6562 61.3812 30.7812C62.0062 31.0938 62.3604 31.3438 62.4437 31.5312C62.5271 31.7188 62.725 31.8646 63.0375 31.9688C63.3708 32.0729 63.7146 32.2396 64.0687 32.4688L64.8812 32.7812C64.9646 32.8646 65.0375 32.9792 65.1 33.125C65.1625 33.2708 65.4333 33.4167 65.9125 33.5625C66.3917 33.6875 66.6729 33.8438 66.7562 34.0312C66.8396 34.2188 67.0062 34.3958 67.2562 34.5625L67.8187 34.4375C68.8604 34.9583 69.5062 35.3438 69.7562 35.5938C69.8812 35.6354 70.1104 35.7083 70.4437 35.8125C70.7979 35.9167 71.0375 36.0729 71.1625 36.2812C71.2875 36.4688 71.5375 36.625 71.9125 36.75C72.9958 37.0833 73.6417 37.9583 73.85 39.375C73.6625 39.8125 73.4229 40.2604 73.1312 40.7188C72.7146 40.8854 72.4229 41.0208 72.2562 41.125C72.0896 41.2083 71.7042 41.3229 71.1 41.4688L70.85 41.6875C70.85 41.7292 70.8083 41.75 70.725 41.75C69.7875 41.75 69.1833 41.2708 68.9125 40.3125C68.8708 40.1875 68.7667 40.0625 68.6 39.9375C68.4333 40.1458 68.3083 40.25 68.225 40.25C67.975 40.25 67.7146 40.1667 67.4437 40C67.1729 39.8125 66.8396 39.5312 66.4437 39.1562C66.0687 38.7812 65.6 38.4167 65.0375 38.0625C64.4958 37.7083 64.0792 37.4167 63.7875 37.1875C62.9333 36.3125 61.7458 35.5417 60.225 34.875C60.1 34.7917 59.9229 34.6458 59.6937 34.4375C59.4854 34.2292 58.9542 33.9167 58.1 33.5C57.2458 33.0625 56.4333 32.3125 55.6625 31.25L55.4125 31.125C55.0792 30.8542 54.7771 30.5938 54.5062 30.3438C54.2562 30.0938 53.9021 29.9271 53.4437 29.8438C53.0062 29.5729 52.6417 29.2917 52.35 29C50.1625 27.5417 48.9021 26.7292 48.5687 26.5625C48.5687 27.5417 48.4229 28.0312 48.1312 28.0312L47.7875 27.9688C47.7042 27.9688 47.5792 28.2917 47.4125 28.9375V29.375L47.0062 30.7188C46.7562 31.6354 46.4229 32.125 46.0062 32.1875V32.6562C45.5896 33.3229 45.3292 33.8438 45.225 34.2188C45.1417 34.5729 44.9958 34.9792 44.7875 35.4375C44.5792 35.875 44.3917 36.4167 44.225 37.0625C44.0583 37.7083 43.6729 38.7292 43.0687 40.125V40.1875L43.2562 40.7188V40.9688C43.2562 41.1354 43.1729 41.4583 43.0062 41.9375C43.2146 42.3542 43.3187 42.5833 43.3187 42.625C43.3187 42.75 43.2667 42.9271 43.1625 43.1562C43.0583 43.3646 42.9646 43.5625 42.8812 43.75C42.7979 43.9375 42.4125 44.1458 41.725 44.375C41.6 44.3125 41.4021 44.1562 41.1312 43.9062C40.4021 43.8229 39.8708 43.4792 39.5375 42.875C39.5375 42.8333 39.4646 42.6667 39.3187 42.375C39.1729 42.0833 39.1 41.8021 39.1 41.5312C39.1 41.4896 39.0271 41.25 38.8812 40.8125C38.7354 40.3542 38.6625 40.0208 38.6625 39.8125C38.6625 38.5625 38.975 37.4792 39.6 36.5625L39.6625 36.1562C39.725 35.9271 39.8604 35.6042 40.0687 35.1875L40.5062 34.25L40.5687 33.8125C40.6104 33.5 40.7042 33.2396 40.85 33.0312C41.0167 32.8021 41.3083 32.2292 41.725 31.3125L41.975 30.9062C42.2042 30.3854 42.3396 30.0938 42.3812 30.0312C42.4437 29.9688 42.475 29.8854 42.475 29.7812L42.5375 29.4375C42.6833 29.3125 42.7562 29.1667 42.7562 29C42.8396 28.9583 42.9854 28.8542 43.1937 28.6875C43.3812 28.1042 43.6417 27.4583 43.975 26.75L44.9437 24.625C45.0062 24.5208 45.0375 24.4479 45.0375 24.4062C45.0375 24.2604 43.4646 23.0833 40.3187 20.875C39.9646 20.625 39.7875 20.2812 39.7875 19.8438C39.7875 19.1562 40.4958 18.4792 41.9125 17.8125C42.0375 17.7708 42.4854 17.5 43.2562 17C44.0271 16.5 44.5792 16.25 44.9125 16.25C45.0375 16.25 45.5896 15.9688 46.5687 15.4062C47.5687 14.8229 48.1104 14.5208 48.1937 14.5C48.2771 14.4792 48.35 14.4375 48.4125 14.375C48.475 14.3125 48.6312 14.2292 48.8812 14.125C49.1521 14.0208 49.4958 13.8542 49.9125 13.625C50.3292 13.3958 50.5375 13.2708 50.5375 13.25ZM45.6312 22.0312L46.0062 22.2188H46.1312C46.3187 22.2188 46.7667 21.2604 47.475 19.3438L48.4437 17.0312L48.0687 16.9688C47.9646 16.9688 47.8292 17.0729 47.6625 17.2812C45.6833 18.0312 44.475 18.5833 44.0375 18.9375L43.7562 19.0938C43.2979 19.3021 43.0687 19.6771 43.0687 20.2188C43.7771 20.9271 44.6312 21.5312 45.6312 22.0312Z" fill="black"/>
</svg>
