<svg width="523" height="48" viewBox="0 0 523 48" fill="none" xmlns="http://www.w3.org/2000/svg">
<path d="M13.3125 2.125L13.5 1.8125C13.6458 1.54167 13.875 1.40625 14.1875 1.40625C14.2292 1.40625 14.3854 1.44792 14.6562 1.53125C14.6146 1.48958 14.5938 1.42708 14.5938 1.34375C14.5938 1.09375 14.7188 0.96875 14.9688 0.96875H15.0938C15.1354 0.96875 15.375 0.90625 15.8125 0.78125L17.9688 0.53125C18.4896 0.53125 19.1354 0.65625 19.9062 0.90625H20.3438L21.1875 1.15625C21.5625 1.51042 21.8333 1.70833 22 1.75C22.1667 1.79167 22.25 1.85417 22.25 1.9375C22.375 2.14583 22.6354 2.39583 23.0312 2.6875L23.9375 3.65625L24.0625 3.90625C24.2292 4.21875 24.4271 4.55208 24.6562 4.90625C24.9062 5.23958 25.0312 5.78125 25.0312 6.53125L24.875 6.90625C25.1042 7.01042 25.2188 7.10417 25.2188 7.1875L25.0312 8.3125V9.28125C25.0312 9.67708 24.9688 10.0208 24.8438 10.3125C24.7396 10.6042 24.6875 10.9271 24.6875 11.2812C24.6875 11.3646 24.5417 11.5938 24.25 11.9688V12.0312L24.375 12.875C24.375 12.9583 24.2812 13.0938 24.0938 13.2812C23.9062 13.4688 23.8125 13.6146 23.8125 13.7188C23.8125 14.1562 23.6979 14.4896 23.4688 14.7188C23.4479 15.1562 23.1979 15.7083 22.7188 16.375C22.2396 17.0208 21.9375 17.5729 21.8125 18.0312C21.7083 18.4896 21.4271 19.0729 20.9688 19.7812C20.8021 20.3021 20.6875 20.6771 20.625 20.9062C20.5625 21.1354 20.3333 21.4271 19.9375 21.7812C19.5625 22.1146 19.375 22.5625 19.375 23.125C19.25 23.5417 18.9583 23.8542 18.5 24.0625L17.7812 24.7188V25.0938C17.7812 25.5312 17.5312 26 17.0312 26.5L15.9688 28.6875C15.7604 29.1042 15.4896 29.3125 15.1562 29.3125L15.0312 29.4375C14.9688 30.0417 14.8646 30.4375 14.7188 30.625C14.5729 30.8125 14.4167 31.0312 14.25 31.2812C14.0833 31.5312 13.9271 31.7604 13.7812 31.9688C13.6354 32.1562 13.4792 32.4688 13.3125 32.9062C13.1458 33.3229 12.9062 33.6875 12.5938 34L12.2812 34.6875V34.9375C12.2812 35.5 12.0938 35.7812 11.7188 35.7812C11.6562 35.7812 11.5417 35.7604 11.375 35.7188H11.3125C11.4375 36.1562 11.5 36.4792 11.5 36.6875C11.5 36.8125 11.2083 37.4688 10.625 38.6562L10.5 39.125V39.625C10.1875 39.9583 9.97917 40.2604 9.875 40.5312C9.77083 40.7812 9.60417 40.9583 9.375 41.0625C9.14583 41.1667 9.03125 41.2396 9.03125 41.2812L9.15625 41.4688V41.5938L8.9375 42.5625L9.09375 43.7188C9.09375 43.8021 9 44.0208 8.8125 44.375C9.5 44.875 9.84375 45.4062 9.84375 45.9688C9.84375 46.8646 9.47917 47.3958 8.75 47.5625H8.5625L7.9375 47.625C7.20833 47.625 6.69792 47.5208 6.40625 47.3125C6.11458 47.1042 5.75 46.7812 5.3125 46.3438L4.90625 46.0938C4.78125 46.0104 4.67708 45.8542 4.59375 45.625L4.28125 45.3125C3.84375 44.7708 3.625 43.8958 3.625 42.6875C3.625 42.5625 3.71875 42.4167 3.90625 42.25L3.96875 42.0625L3.90625 41.4688C3.90625 41.3646 4.13542 40.6875 4.59375 39.4375L5.5 37.5625C6 36.5417 6.34375 35.9479 6.53125 35.7812C6.59375 35.4479 6.69792 35.0625 6.84375 34.625L7.03125 34.5C7.07292 34.2083 7.22917 33.8958 7.5 33.5625C7.79167 33.2083 8 32.7917 8.125 32.3125C8.41667 32.2708 8.5625 32.2083 8.5625 32.125C8.5625 32.0833 8.54167 32 8.5 31.875V31.75C8.5 31.375 8.64583 31.0521 8.9375 30.7812C9.25 30.4896 9.47917 30.1562 9.625 29.7812C9.77083 29.3854 9.9375 29.0938 10.125 28.9062C10.3333 28.7188 10.5208 28.3854 10.6875 27.9062C10.8333 27.7604 11.0417 27.6562 11.3125 27.5938C11.5833 27.5104 11.7188 27.4062 11.7188 27.2812C11.7188 27.2396 11.625 27.0417 11.4375 26.6875C12 25.3958 12.6042 24.3958 13.25 23.6875C13.3333 23.5625 13.4167 23.3646 13.5 23.0938C13.5833 22.8021 13.75 22.5938 14 22.4688C14.2292 21.7604 14.5 21.1771 14.8125 20.7188C15.125 20.2604 15.4062 19.7604 15.6562 19.2188C15.9271 18.6562 16.25 18.375 16.625 18.375L16.75 18.1875L16.6875 17.5312C16.6875 17.5104 16.7708 17.3125 16.9375 16.9375C17.125 16.5625 17.2917 16.3542 17.4375 16.3125C17.5833 16.2708 17.7604 16.1042 17.9688 15.8125L17.7188 15.3125C17.8021 15.25 17.875 15.1458 17.9375 15C18 14.8542 18.0729 14.7812 18.1562 14.7812C18.6771 14.4896 18.9375 14.1771 18.9375 13.8438C18.9375 13.7604 18.9167 13.625 18.875 13.4375V13.3125C18.875 13.1875 19.0625 12.9167 19.4375 12.5C19.8333 12.0625 20.0312 11.5417 20.0312 10.9375C20.0729 10.6458 20.1979 10.375 20.4062 10.125C20.6146 9.875 20.7188 9.66667 20.7188 9.5C20.7188 9.35417 20.7812 9.19792 20.9062 9.03125L20.7812 8.25C21.1771 7.64583 21.375 7.09375 21.375 6.59375C21.375 6.55208 21.3229 6.44792 21.2188 6.28125C21.1146 6.11458 21.0625 5.89583 21.0625 5.625C21.0625 5.5 20.9479 5.33333 20.7188 5.125L20.5938 4.8125C19.9479 4.58333 19.5312 4.375 19.3438 4.1875C19.1562 4 18.6354 3.90625 17.7812 3.90625L17.2188 4.03125L16.75 3.90625C16.625 3.98958 16.5208 4.03125 16.4375 4.03125H16.375L16.0625 3.96875C15.7083 3.96875 15.2083 4.11458 14.5625 4.40625C13.9375 4.67708 13.5208 4.8125 13.3125 4.8125C12.6667 4.8125 12.2292 5 12 5.375C11.7917 5.72917 11.625 5.90625 11.5 5.90625L11.1875 5.78125H11.125C10.9583 5.78125 10.8125 6.07292 10.6875 6.65625L10.625 6.78125C9.8125 7.23958 9.16667 7.70833 8.6875 8.1875L6.65625 10.3125C5.96875 11.0208 5.59375 11.5 5.53125 11.75C5.46875 11.9792 5.26042 12.2083 4.90625 12.4375C4.57292 13.0417 4.40625 13.4688 4.40625 13.7188C4.40625 14.2604 4.29167 14.6354 4.0625 14.8438C3.83333 15.0312 3.71875 15.1875 3.71875 15.3125C3.71875 15.3958 3.73958 15.4792 3.78125 15.5625C3.82292 15.6458 3.90625 15.875 4.03125 16.25V16.4062C4.03125 16.6562 3.94792 16.875 3.78125 17.0625C3.63542 17.25 3.5625 17.3646 3.5625 17.4062C3.5625 17.4688 3.73958 17.6875 4.09375 18.0625C4.46875 18.4375 4.65625 18.7083 4.65625 18.875C4.65625 19.4375 4.40625 19.9583 3.90625 20.4375C3.42708 20.8958 2.91667 21.125 2.375 21.125C1.89583 21.125 1.51042 21.0104 1.21875 20.7812C0.947917 20.5521 0.8125 19.8542 0.8125 18.6875L0.875 17.875L1.15625 16.9688L1.09375 16C1.09375 15.9167 1.29167 15.5625 1.6875 14.9375C2.08333 14.2917 2.33333 13.8229 2.4375 13.5312C2.8125 12.3021 3.38542 11.3542 4.15625 10.6875C4.32292 10.5625 4.40625 10.4167 4.40625 10.25C4.40625 9.95833 4.53125 9.67708 4.78125 9.40625C4.78125 9.32292 4.92708 9.15625 5.21875 8.90625C5.51042 8.65625 5.6875 8.39583 5.75 8.125C5.83333 7.83333 6.02083 7.64583 6.3125 7.5625C6.625 7.47917 6.84375 7.19792 6.96875 6.71875C7.44792 6.13542 8.02083 5.66667 8.6875 5.3125C9 4.72917 9.36458 4.36458 9.78125 4.21875L10.625 3.65625L10.8125 3.34375C10.9375 3.21875 11.1042 3.11458 11.3125 3.03125C11.5208 2.92708 11.7188 2.77083 11.9062 2.5625C12.4896 2.27083 12.875 2.125 13.0625 2.125H13.3125ZM33.6 27.5938L34.0375 26.8125C34.1625 26.625 34.3187 26.4375 34.5062 26.25C34.7146 26.0417 34.9333 25.5312 35.1625 24.7188C35.3917 23.8854 35.6417 23.3125 35.9125 23C36.2042 22.6875 36.6208 22.5312 37.1625 22.5312C37.475 22.5312 37.8812 22.6875 38.3812 23C38.9021 23.2917 39.4021 24.1979 39.8812 25.7188C40.3812 27.2396 40.6312 28.3125 40.6312 28.9375C40.6312 29.1875 40.7042 29.5104 40.85 29.9062C40.9958 30.2812 41.0896 30.5729 41.1312 30.7812C40.9646 31.1354 40.8812 31.3333 40.8812 31.375L40.9437 32.6562L40.5687 33.6875V34.4375C40.3187 34.8542 40.1937 35.1146 40.1937 35.2188C40.1937 35.3438 40.2354 35.4688 40.3187 35.5938C41.2979 35.1771 41.8917 34.8438 42.1 34.5938C42.3083 34.3229 42.5062 34.1562 42.6937 34.0938C42.9021 34.0312 43.2354 33.7604 43.6937 33.2812L44.2875 32.9688C44.4958 32.7188 44.6729 32.5 44.8187 32.3125C44.9646 32.1042 45.1312 31.9583 45.3187 31.875C45.5271 31.7917 45.7667 31.6458 46.0375 31.4375C46.3083 31.2292 46.7042 30.9896 47.225 30.7188L47.5375 30.3438C47.85 29.9896 48.2146 29.7083 48.6312 29.5C49.0687 29.2917 49.3083 29.1875 49.35 29.1875C49.4958 29.1875 49.6417 29.3854 49.7875 29.7812C49.9542 30.1562 50.0375 30.5312 50.0375 30.9062C50.0375 31.2604 49.8292 31.6146 49.4125 31.9688C49.0167 32.3021 48.7458 32.5521 48.6 32.7188C48.4542 32.8854 48.1208 33.0312 47.6 33.1562C47.5583 33.1771 47.2146 33.6042 46.5687 34.4375L45.9437 34.8125L45.6312 35.2188C45.5896 35.3021 45.3083 35.3854 44.7875 35.4688C44.7667 35.4688 44.7146 35.5729 44.6312 35.7812C44.5687 35.9896 44.35 36.1354 43.975 36.2188C43.225 36.9062 42.8396 37.2917 42.8187 37.375L42.1625 37.5C42.0375 37.8958 41.9333 38.1354 41.85 38.2188C41.35 38.3438 41.0687 38.5521 41.0062 38.8438C40.9437 38.8854 40.8396 38.9271 40.6937 38.9688L40.5687 39.0625C40.0896 39.4375 39.6208 39.6667 39.1625 39.75L38.4437 39.9375L38.1937 40.3125C38.1937 40.4167 37.9333 40.5521 37.4125 40.7188C36.9125 40.8854 36.5375 41.0938 36.2875 41.3438L35.7562 41.75C35.1104 42 34.7042 42.2292 34.5375 42.4375H34.1C33.8083 42.4375 33.35 42.6562 32.725 43.0938C32.1 43.5104 31.6 43.7188 31.225 43.7188C30.0167 43.7188 29.1833 43.5729 28.725 43.2812C28.2875 42.9688 27.9229 42.5938 27.6312 42.1562C27.3396 41.6979 27.0792 41.3333 26.85 41.0625C26.6 40.7917 26.475 40.5729 26.475 40.4062C26.475 40.2604 26.5792 40.1146 26.7875 39.9688C26.975 39.8229 27.1833 39.5312 27.4125 39.0938C27.6417 38.6354 28.225 38.3438 29.1625 38.2188C29.2042 38.2188 29.35 38.1562 29.6 38.0312C29.8708 37.9062 30.0896 37.8438 30.2562 37.8438C30.4646 37.8438 30.725 38.0312 31.0375 38.4062C31.0375 38.4479 31.0792 38.4688 31.1625 38.4688L31.6625 38.4062C31.8917 38.5729 32.0479 38.6562 32.1312 38.6562C32.6312 38.6562 33.1625 38.4062 33.725 37.9062L33.85 37.8438H34.1C34.1625 37.8438 34.2667 37.6667 34.4125 37.3125L34.9437 36.2188L36.0375 34.8125V34.5C36.0375 34.4375 36.1 34.25 36.225 33.9375V33.4688C36.225 33.2812 36.35 33.1667 36.6 33.125C36.85 33.0625 36.975 32.9271 36.975 32.7188L36.9125 32.4688C36.7458 32.2396 36.6625 32.0625 36.6625 31.9375L36.975 31.3125L36.9125 30.6562L37.0375 30.4062C36.9542 30.1146 36.9125 29.9479 36.9125 29.9062L37.0375 29.125C37.0375 29.1042 36.975 28.9062 36.85 28.5312C36.7458 28.1562 36.6625 27.9688 36.6 27.9688C36.475 27.9688 36.0792 28.2917 35.4125 28.9375C34.7458 29.5833 34.35 30.0417 34.225 30.3125C34.1 30.5833 33.8292 30.8333 33.4125 31.0625C33.0167 31.2708 32.7458 31.5104 32.6 31.7812C32.4542 32.0521 32.2771 32.2083 32.0687 32.25L29.975 33.9375L27.6937 35.625C27.5271 35.8125 27.4229 35.9062 27.3812 35.9062C26.6104 35.9062 26.225 35.4792 26.225 34.625C26.225 34.3542 26.3812 33.8646 26.6937 33.1562C26.8396 33.0729 26.9542 33.0104 27.0375 32.9688C27.1 32.9271 27.1312 32.8958 27.1312 32.875C27.1312 32.8542 27.1104 32.8438 27.0687 32.8438L27.2562 32.9688H27.3187C28.0896 32.4479 28.5896 32.1458 28.8187 32.0625C29.0479 31.9792 29.2562 31.75 29.4437 31.375L30.7562 30.4375C31.0896 30.1875 31.6 29.7292 32.2875 29.0625C32.975 28.3958 33.4125 27.9062 33.6 27.5938ZM56.2938 31.125L56.5438 30.7812C57.0854 30.6562 57.4292 30.4479 57.575 30.1562C57.6375 30.0104 58.1583 29.4688 59.1375 28.5312C60.1167 27.5938 60.6583 27.0938 60.7625 27.0312C61.4292 25.8229 61.8354 24.9167 61.9813 24.3125C62.2313 24.1875 62.3563 24.0417 62.3563 23.875L62.6063 23.375L62.8875 23.3125L63.0125 23.1875V22.9062C63.0125 22.5312 63.4188 21.6562 64.2313 20.2812C65.0438 18.5938 65.4813 17.6667 65.5438 17.5C65.6063 17.3125 65.7313 17.0521 65.9188 16.7188C66.1063 16.3646 66.3875 15.6979 66.7625 14.7188C67.1583 13.7396 67.7625 12.7188 68.575 11.6562C68.6583 11.6146 68.7833 11.3854 68.95 10.9688C69.1167 10.5312 69.3771 10.1042 69.7313 9.6875L70.1063 9.03125C70.2313 8.82292 70.45 8.45833 70.7625 7.9375C71.075 7.41667 71.3563 7.01042 71.6063 6.71875C71.8771 6.40625 72.075 6.08333 72.2 5.75C72.3458 5.41667 72.5125 5.17708 72.7 5.03125C72.8875 4.88542 73.075 4.625 73.2625 4.25C73.4708 3.85417 73.7833 3.65625 74.2 3.65625C75.0125 3.65625 75.5958 3.98958 75.95 4.65625C76.325 5.32292 76.5125 5.90625 76.5125 6.40625C76.5125 6.46875 76.3875 6.91667 76.1375 7.75L75.6688 10.5625C75.2521 10.7708 75.0438 11.0104 75.0438 11.2812C75.0438 12.3854 74.6167 13.5312 73.7625 14.7188C73.6792 14.8021 73.6063 15.0729 73.5438 15.5312C73.5021 15.9896 73.325 16.3646 73.0125 16.6562C72.7 16.9479 72.4188 17.4375 72.1688 18.125L69.2625 22.2812L69.0125 22.5312C68.8875 22.6146 68.7417 22.7917 68.575 23.0625L68.075 22.9062C67.5125 22.9062 67.2313 23.0833 67.2313 23.4375C67.2313 23.5625 67.2729 23.7292 67.3563 23.9375V24C67.3563 24.0208 66.5854 25.1146 65.0438 27.2812C64.9604 27.4062 64.8146 27.8125 64.6063 28.5L64.1688 29.4375C63.7313 30.0417 63.4188 30.6354 63.2313 31.2188C63.0646 31.7812 62.8354 32.2396 62.5438 32.5938C62.1271 33.5312 61.9188 34.0208 61.9188 34.0625C61.9188 34.1875 61.9813 34.25 62.1063 34.25C62.2313 34.25 62.5229 33.9375 62.9813 33.3125C63.4604 32.6875 63.8458 32.2708 64.1375 32.0625C64.45 31.8542 64.7104 31.5625 64.9188 31.1875L65.2313 30.9688C65.3146 30.9271 65.4917 30.8021 65.7625 30.5938L66.075 30.6562C66.2417 30.5312 66.3458 30.3854 66.3875 30.2188C66.4292 30.0521 66.4917 29.9271 66.575 29.8438C67.1167 29.7812 67.45 29.5833 67.575 29.25C67.7208 28.9167 67.8875 28.75 68.075 28.75C68.2417 28.75 68.4604 28.5625 68.7313 28.1875C69.0021 27.7917 69.3771 27.4792 69.8563 27.25C70.3563 27 70.7208 26.7812 70.95 26.5938C71.2 26.4062 71.6896 26.1875 72.4188 25.9375C73.1479 25.6667 73.6375 25.5312 73.8875 25.5312H74.075L74.325 25.5938L74.7938 25.5312C75.5229 25.5312 76.2521 25.7396 76.9813 26.1562C77.7104 26.5521 78.0229 27.1771 77.9188 28.0312L77.6688 29.9688L77.325 31.5C77.2833 31.75 77.1167 32.3021 76.825 33.1562C76.5333 34.0104 76.3875 34.5 76.3875 34.625L76.2625 35.2188L76.3875 36.0312L76.325 36.6875C76.325 36.8958 76.4292 37 76.6375 37C76.7208 37 76.95 36.8125 77.325 36.4375C77.5542 36.4792 77.7729 36.3542 77.9813 36.0625C78.1896 35.7708 78.4708 35.4688 78.825 35.1562C78.825 35.0729 78.9604 35 79.2313 34.9375C79.5021 34.8542 79.8771 34.6042 80.3563 34.1875C80.4396 34 80.8458 33.6042 81.575 33C82.3042 32.375 83.0021 31.8958 83.6688 31.5625L83.8563 31.3125C84.2104 30.9583 84.5333 30.7812 84.825 30.7812C85.1167 30.7812 85.2625 30.9375 85.2625 31.25C85.2625 31.4583 85.2104 31.6771 85.1063 31.9062C85.0021 32.1354 84.9292 32.4375 84.8875 32.8125C84.8458 33.1667 84.6375 33.6875 84.2625 34.375L84.1375 34.6875C83.9917 35.0417 83.8146 35.25 83.6063 35.3125C83.3979 35.375 83.1688 35.5521 82.9188 35.8438C82.6896 36.1146 82.2 36.375 81.45 36.625C81.1167 37.25 80.8563 37.5625 80.6688 37.5625L80.1063 37.3125C79.6688 37.6667 79.45 38.0312 79.45 38.4062C78.9083 38.8646 78.5854 39.1667 78.4813 39.3125L77.8563 39.25C77.6896 39.25 77.6063 39.4792 77.6063 39.9375C77.6063 39.9792 77.3875 40.125 76.95 40.375C76.5333 40.6042 76.2104 40.8125 75.9813 41C75.7521 41.1875 75.2625 41.2812 74.5125 41.2812C74.4292 41.2812 74.3042 41.2083 74.1375 41.0625C73.9708 40.9167 73.7208 40.7917 73.3875 40.6875C73.075 40.5833 72.8563 40.3438 72.7313 39.9688C72.6063 39.5729 72.4708 39.2708 72.325 39.0625C72.1792 38.8333 72.1063 38.6562 72.1063 38.5312L72.1688 37.9062L72.0125 37.25L72.2938 36.8125C72.1688 36.5208 72.1063 36.3229 72.1063 36.2188L72.4188 34.3125C72.6479 32.9375 72.8354 32.0417 72.9813 31.625C73.0229 31.5833 73.0438 31.4583 73.0438 31.25L72.9813 30.4688L73.0438 30.0312C73.0438 29.7188 72.9396 29.5521 72.7313 29.5312C72.5229 29.5104 72.3979 29.4583 72.3563 29.375C72.0854 29.25 71.9292 29.1875 71.8875 29.1875C71.7208 29.1875 71.575 29.3229 71.45 29.5938C71.325 29.8438 71.1583 30.0729 70.95 30.2812L70.1688 30.1562V30.2188C70.1688 30.3854 69.8875 30.7083 69.325 31.1875C68.8042 31.3125 68.3563 31.5833 67.9813 32C67.8146 32 67.5229 32.1667 67.1063 32.5C66.7104 32.8125 66.45 32.9896 66.325 33.0312L66.075 33.5312L65.575 33.6875C65.4292 34.1042 65.0854 34.375 64.5438 34.5L64.2313 35.0938C63.7938 35.1354 63.4917 35.3646 63.325 35.7812C63.1583 36.1771 63.0333 36.375 62.95 36.375C62.9083 36.375 62.8354 36.3542 62.7313 36.3125C62.6479 36.25 62.5646 36.2188 62.4813 36.2188C62.0229 36.2188 61.7729 36.5625 61.7313 37.25C61.7313 37.3333 61.3042 37.8229 60.45 38.7188C59.5958 39.6146 59.1375 40.0729 59.075 40.0938C59.0125 40.1146 58.8875 40.3333 58.7 40.75C58.5333 41.1458 58.2938 41.4479 57.9813 41.6562C57.6688 41.8438 57.4292 42 57.2625 42.125C57.1167 42.25 57.0021 42.3125 56.9188 42.3125C56.4813 42.3125 56.1271 42 55.8563 41.375C55.5854 40.75 55.45 40.4271 55.45 40.4062L55.6375 39.75L55.575 39.1875C55.575 39.1667 55.7 38.75 55.95 37.9375C56.2208 37.1042 56.5229 36.4583 56.8563 36C57.1896 35.5208 57.45 34.75 57.6375 33.6875C56.7 34.3125 56.1375 34.625 55.95 34.625C55.5333 34.625 55.325 34.3542 55.325 33.8125C55.325 32.8125 55.6479 31.9167 56.2938 31.125ZM92.0188 33.3438V33.2188L92.2063 33.0312C92.2063 32.9062 92.3313 32.7083 92.5813 32.4375C92.8104 32.1458 92.9563 31.9167 93.0188 31.75C93.0813 31.5833 93.1854 31.4583 93.3313 31.375C93.4771 31.2917 93.6021 31.1458 93.7063 30.9375C93.8313 30.7083 94.0813 30.4896 94.4563 30.2812L97.6438 26.25C97.9979 25.8125 98.2583 25.5104 98.425 25.3438C99.1125 24.4896 99.6646 23.4688 100.081 22.2812C100.165 22.1562 100.29 22.0312 100.456 21.9062C100.977 20.8854 101.456 19.7292 101.894 18.4375L102.206 17.9375C102.227 17.875 102.404 17.5417 102.738 16.9375C103.071 16.3125 103.31 15.9167 103.456 15.75C103.623 15.5833 103.779 15.1979 103.925 14.5938L104.613 13.2188C104.8 12.8021 105.081 12.1354 105.456 11.2188C105.977 11.0312 106.238 10.9167 106.238 10.875C106.238 10.7917 106.206 10.6979 106.144 10.5938C106.081 10.4896 106.029 10.3958 105.988 10.3125C106.071 10.0208 106.238 9.78125 106.488 9.59375L106.613 9.46875C106.613 9.38542 106.696 9.21875 106.863 8.96875L106.925 8.78125C107.3 7.94792 107.779 7.25 108.363 6.6875C108.967 6.125 109.54 5.84375 110.081 5.84375C110.581 5.84375 110.863 6.03125 110.925 6.40625C110.988 6.78125 111.081 7.09375 111.206 7.34375C111.352 7.57292 111.425 7.8125 111.425 8.0625V8.84375L111.238 11.5312C111.238 11.5729 111.258 11.6562 111.3 11.7812C111.113 11.9479 110.998 12.1667 110.956 12.4375L109.675 15.875C109.571 15.8958 109.352 16.2188 109.019 16.8438L108.55 17.75C108.05 18.7083 107.665 19.2604 107.394 19.4062L107.206 19.6562C106.977 19.9896 106.779 20.1562 106.613 20.1562C106.613 20.6771 106.425 21.1146 106.05 21.4688C105.696 21.8021 105.425 22.1875 105.238 22.625C105.05 23.0417 104.696 23.375 104.175 23.625C104.008 23.9583 103.8 24.3229 103.55 24.7188L102.144 26.625C101.769 27.1458 101.477 27.7812 101.269 28.5312C101.081 29.2604 100.883 29.7812 100.675 30.0938L100.55 30.4062C100.071 30.6979 99.8313 30.875 99.8313 30.9375C99.8313 31.0417 99.7896 31.375 99.7063 31.9375C99.5396 32.375 99.4354 32.6146 99.3938 32.6562L99.4563 33.3438L99.05 33.4062C99.0083 33.4479 98.9458 33.625 98.8625 33.9375V34.5625L98.925 34.625C99.0083 34.625 99.1021 34.4792 99.2063 34.1875C99.4979 33.9792 99.8729 33.7604 100.331 33.5312L100.55 33.4062C100.717 32.9062 100.883 32.5938 101.05 32.4688L101.675 31.625L102.581 30.8438C103.435 30.0104 103.863 29.5625 103.863 29.5C103.863 29.4583 103.883 29.4167 103.925 29.375L104.363 29.4375L104.581 29.3125L104.488 28.75C104.508 28.7292 104.665 28.6042 104.956 28.375L105.925 27.4062L106.425 27.0312C106.592 26.8854 106.8 26.6979 107.05 26.4688C107.321 26.2396 107.54 26.125 107.706 26.125L108.081 26.25C108.331 25.625 108.883 25.125 109.738 24.75C110.592 24.375 111.092 24.1875 111.238 24.1875L113.019 24.5938C113.185 24.7604 113.54 25.0104 114.081 25.3438C114.644 25.6562 114.925 26.4479 114.925 27.7188C114.925 27.8438 114.8 28.1667 114.55 28.6875L114.613 29.25C114.613 29.375 114.446 29.5938 114.113 29.9062L113.925 30.5312L112.113 32.1875C111.904 32.3333 111.685 32.4375 111.456 32.5C111.248 32.5625 111.029 32.6875 110.8 32.875C110.571 33.0625 110.06 33.3542 109.269 33.75C108.477 34.125 108.081 34.4375 108.081 34.6875C108.081 34.7708 108.217 35.0104 108.488 35.4062C108.779 35.7812 108.988 36.1042 109.113 36.375C109.238 36.6458 109.467 36.9583 109.8 37.3125C110.154 37.6667 110.456 37.8646 110.706 37.9062C110.956 37.9479 111.217 38.0104 111.488 38.0938C111.508 38.0521 111.696 37.9688 112.05 37.8438C112.404 37.6979 112.665 37.5417 112.831 37.375L113.269 37.25C113.56 37.2083 113.758 37.0833 113.863 36.875C113.988 36.6667 114.29 36.4271 114.769 36.1562C115.248 35.8646 115.623 35.5417 115.894 35.1875C116.185 34.8125 116.446 34.625 116.675 34.625H117.05C117.342 34.625 117.508 34.4167 117.55 34C118.113 33.75 118.519 33.4896 118.769 33.2188C119.019 32.9271 119.3 32.6979 119.613 32.5312L119.8 32.4062C120.363 31.8021 120.831 31.5 121.206 31.5C121.415 31.5 121.56 31.6042 121.644 31.8125C121.477 32.5 121.394 32.9792 121.394 33.25C121.394 33.4375 121.269 33.8125 121.019 34.375C120.79 34.9375 120.665 35.2188 120.644 35.2188L120.3 35.0938H120.238C120.113 35.0938 119.988 35.1667 119.863 35.3125C119.738 35.4583 119.613 35.5521 119.488 35.5938C119.363 35.6354 119.227 35.7604 119.081 35.9688C118.956 36.1771 118.748 36.3438 118.456 36.4688C118.165 36.5729 117.925 36.7292 117.738 36.9375C117.571 37.1458 117.446 37.2812 117.363 37.3438C117.279 37.4062 117.196 37.4896 117.113 37.5938C117.029 37.6771 116.935 37.75 116.831 37.8125C116.727 37.875 116.592 38 116.425 38.1875C116.279 38.375 116.081 38.5312 115.831 38.6562C115.581 38.7812 115.383 38.9792 115.238 39.25C115.113 39.5 114.935 39.6771 114.706 39.7812C114.498 39.8854 114.196 40.0625 113.8 40.3125L112.956 40.9062C112.748 41.0312 112.623 41.0938 112.581 41.0938H112.488L112.175 41.0312C112.092 41.0312 112.05 41.0938 112.05 41.2188C111.8 41.5729 111.571 41.75 111.363 41.75C111.133 41.75 110.842 41.8229 110.488 41.9688C110.154 42.1146 109.904 42.1875 109.738 42.1875C109.446 42.1875 108.894 42.0833 108.081 41.875C107.915 41.6875 107.727 41.5521 107.519 41.4688C107.31 41.3854 107.05 41 106.738 40.3125L106.3 39.9375C105.946 39.6875 105.373 38.625 104.581 36.75L104.3 36.375C103.633 36.2292 103.3 35.9062 103.3 35.4062C103.3 35.3021 103.425 35 103.675 34.5L103.988 34.3125C104.113 34.0625 104.258 33.9167 104.425 33.875C104.613 33.8333 104.769 33.6875 104.894 33.4375C105.019 33.1667 105.206 33.0312 105.456 33.0312H105.581C105.873 32.7396 106.154 32.5208 106.425 32.375C106.717 32.2083 106.946 32.0417 107.113 31.875C107.3 31.7083 107.758 31.5 108.488 31.25C109.238 31 109.613 30.2083 109.613 28.875C109.613 28.75 109.508 28.6667 109.3 28.625C108.696 28.8333 108.248 29.1042 107.956 29.4375C107.54 29.4792 107.217 29.6979 106.988 30.0938C106.758 30.4688 106.55 30.6562 106.363 30.6562L105.769 30.5938C105.644 30.5938 105.519 30.7708 105.394 31.125C105.269 31.4583 105.102 31.625 104.894 31.625H104.644L104.238 31.8125L104.113 32.3125C103.633 32.8333 103.248 33.0938 102.956 33.0938L102.706 33.8125C102.373 33.9375 101.988 34.25 101.55 34.75L101.363 34.875C101.196 35.0625 101.071 35.2188 100.988 35.3438C100.904 35.4688 100.779 35.5312 100.613 35.5312C100.342 35.6979 100.102 36.0417 99.8938 36.5625C99.6438 36.5625 99.4771 36.7604 99.3938 37.1562C99.3104 37.5312 99.1333 37.7188 98.8625 37.7188H98.6125C98.4042 38.1979 98.2271 38.5 98.0813 38.625C97.9354 38.7292 97.7688 38.8958 97.5813 39.125C97.3938 39.3542 97.2479 39.5833 97.1438 39.8125C97.0396 40.0417 96.8313 40.2812 96.5188 40.5312C96.2063 40.7812 95.9667 40.9896 95.8 41.1562L95.3 41.4688C95.0292 41.6562 94.8521 41.7917 94.7688 41.875C94.6854 41.9583 94.5813 42 94.4563 42C94.2479 42 93.9458 41.8438 93.55 41.5312C93.175 41.1979 92.9875 40.9479 92.9875 40.7812C92.9875 39.5729 93.0917 38.7188 93.3 38.2188L94.1438 36.0312C94.3938 35.3646 94.6854 34.7812 95.0188 34.2812C95.3729 33.7812 95.55 33.4271 95.55 33.2188C95.55 32.9271 95.4458 32.7812 95.2375 32.7812C94.5083 33.5104 94.0292 33.9375 93.8 34.0625C92.6125 33.9167 92.0188 33.6771 92.0188 33.3438ZM154.15 34.4375L154.65 34C154.962 34 155.15 33.8646 155.212 33.5938C155.275 33.3021 155.494 33.0729 155.869 32.9062C156.265 32.7396 156.629 32.4062 156.962 31.9062C157.296 31.3854 157.64 31.125 157.994 31.125C158.119 31.125 158.265 31.2292 158.431 31.4375C158.598 31.6458 158.681 31.8125 158.681 31.9375C158.681 32.625 158.473 33.3333 158.056 34.0625L157.931 34.9375L157.712 35.3438C157.4 35.5104 157.192 35.6875 157.087 35.875C157.004 36.0625 156.765 36.2917 156.369 36.5625L156.056 37C155.598 37.1458 155.285 37.3854 155.119 37.7188C154.973 38.0521 154.754 38.2396 154.462 38.2812C154.192 38.3229 153.89 38.5312 153.556 38.9062C153.348 39.0104 153.098 39.1042 152.806 39.1875L152.744 39.5C152.535 39.7083 152.202 39.875 151.744 40C151.306 40.125 150.973 40.25 150.744 40.375C150.535 40.4792 150.39 40.5312 150.306 40.5312C149.91 40.5312 149.546 40.4583 149.212 40.3125C148.879 40.1458 148.535 40.0417 148.181 40C148.056 39.875 147.983 39.7396 147.962 39.5938C147.942 39.4479 147.837 39.2604 147.65 39.0312C147.462 38.7812 147.369 38.4479 147.369 38.0312L147.494 37.4375C147.494 37.3542 147.442 37.25 147.337 37.125C147.233 37 147.181 36.8958 147.181 36.8125C147.181 36.7292 147.202 36.6667 147.244 36.625C147.285 36.5833 147.306 36.5208 147.306 36.4375C147.306 36.3333 147.285 36.2188 147.244 36.0938C147.202 35.9688 147.181 35.8646 147.181 35.7812L147.369 34.25C147.369 34.125 147.327 34.0625 147.244 34.0625C147.16 34.0625 147.004 34.1667 146.775 34.375C146.567 34.5833 146.317 34.6875 146.025 34.6875C145.858 34.8125 145.723 35.0729 145.619 35.4688C145.452 35.6771 145.244 35.8646 144.994 36.0312L144.869 36.2188C144.827 36.3646 144.671 36.4896 144.4 36.5938C144.129 36.6771 143.942 36.7917 143.837 36.9375L143.525 37.25L142.931 37.1875C142.89 37.2292 142.775 37.4167 142.587 37.75C142.4 38.0625 142.16 38.3229 141.869 38.5312L139.494 40.4688C139.244 40.6354 138.879 40.8438 138.4 41.0938L138.212 41.2812C136.546 42.3854 135.369 42.9375 134.681 42.9375C134.119 42.9375 133.462 42.7812 132.712 42.4688C131.962 42.1562 131.556 41.7812 131.494 41.3438L131.181 40.0625C130.994 39.7708 130.9 39.3646 130.9 38.8438C130.9 38.5938 130.921 38.4271 130.962 38.3438V38.1562L130.9 37.125C130.9 36.875 131.098 36.75 131.494 36.75L131.431 35.9062C131.431 35.8229 131.608 35.5 131.962 34.9375C132.337 34.3542 132.587 34.0208 132.712 33.9375L133.025 33.5312C133.004 33.2812 133.15 33.0208 133.462 32.75C133.775 32.4583 134.025 32.1667 134.212 31.875C134.4 31.5833 134.754 31.2604 135.275 30.9062L136.212 29.9688C136.942 29.2396 137.733 28.6562 138.587 28.2188C138.712 28.1771 138.962 27.9688 139.337 27.5938C139.733 27.2188 140.171 26.9479 140.65 26.7812C141.15 26.5938 141.629 26.3646 142.087 26.0938C142.567 25.8229 142.942 25.6875 143.212 25.6875H143.462C143.546 25.6875 144.098 25.4271 145.119 24.9062H145.306C145.39 24.9062 145.587 24.9896 145.9 25.1562H145.962L146.462 24.9062C146.546 24.8646 146.65 24.8438 146.775 24.8438C148.067 24.8438 148.775 25.7396 148.9 27.5312C148.942 27.9062 149.046 28.0938 149.212 28.0938C149.421 28.0938 149.712 27.7188 150.087 26.9688C150.483 26.1979 151.306 25.8125 152.556 25.8125C153.452 25.8125 153.9 26.3854 153.9 27.5312C153.9 28.8854 153.296 30.1667 152.087 31.375C152.004 31.5417 151.942 31.7292 151.9 31.9375L151.462 33.2188V33.2812C151.462 33.4062 151.369 33.5833 151.181 33.8125C151.015 34.0208 150.931 34.2083 150.931 34.375L150.994 35.1562L150.869 36.0312C150.869 36.4271 150.942 36.6875 151.087 36.8125C151.754 36.6458 152.233 36.375 152.525 36C152.837 35.6042 153.056 35.3854 153.181 35.3438L153.494 35.2188C153.681 34.9062 153.9 34.6458 154.15 34.4375ZM143.775 34.4375C143.858 33.9792 144.108 33.6354 144.525 33.4062C144.962 33.1562 145.223 32.9062 145.306 32.6562C145.702 32.3646 146.265 31.8438 146.994 31.0938C147.744 30.3438 148.119 29.8854 148.119 29.7188C148.119 29.6562 148.077 29.625 147.994 29.625H147.931L147.681 29.7812L147.119 29.7188L146.525 29.7812L146.087 29.5625L145.681 29.625L145.056 29.5C144.723 29.5 144.431 29.5729 144.181 29.7188C143.952 29.8438 143.494 29.9896 142.806 30.1562C142.14 30.3229 141.535 30.6146 140.994 31.0312C140.452 31.4271 140.056 31.625 139.806 31.625C139.66 31.9375 139.171 32.3854 138.337 32.9688C137.837 33.1354 137.515 33.5 137.369 34.0625C136.827 34.5 136.556 34.75 136.556 34.8125L136.337 35.3438C136.171 35.4896 135.962 35.6146 135.712 35.7188C135.462 35.8021 135.317 36.0208 135.275 36.375C135.233 36.7083 135.087 37.0208 134.837 37.3125C134.608 37.5833 134.494 37.8021 134.494 37.9688C134.494 38.9896 134.692 39.5 135.087 39.5C135.254 39.5 135.598 39.3958 136.119 39.1875C136.66 38.9583 136.973 38.8021 137.056 38.7188C137.14 38.6354 137.306 38.5521 137.556 38.4688L138.15 38.1562C138.233 38.0729 138.327 38.0208 138.431 38C138.535 37.9792 138.64 37.9167 138.744 37.8125C138.848 37.6875 139.035 37.5625 139.306 37.4375C139.577 37.2917 139.785 37.1042 139.931 36.875C140.285 36.6667 140.858 36.3438 141.65 35.9062L142.306 35.4062C142.765 35.1979 143.046 35.0208 143.15 34.875C143.254 34.7292 143.462 34.5833 143.775 34.4375ZM173.375 27.3438L173.844 27.2188L174.031 26.8125C175.052 26.2083 175.781 25.6354 176.219 25.0938C176.26 25.0104 176.354 24.9271 176.5 24.8438C176.646 24.7604 176.802 24.6146 176.969 24.4062C177.74 23.6354 178.656 23.25 179.719 23.25C180.969 23.25 181.635 24.0104 181.719 25.5312L181.906 26C182.073 26.2917 182.302 26.8854 182.594 27.7812C182.906 28.6771 183.062 29.2292 183.062 29.4375C183.062 30 182.885 30.5625 182.531 31.125C182.24 31.2708 181.542 32.0521 180.438 33.4688L180.125 33.6875C179.958 34.0625 179.74 34.4375 179.469 34.8125C179.052 34.9583 178.844 35.1146 178.844 35.2812V35.8438C178.844 35.8854 178.792 35.9688 178.688 36.0938C178.604 36.2188 178.479 36.4583 178.312 36.8125L178.062 37.1875C177.979 37.2708 177.896 37.4479 177.812 37.7188C177.729 37.9688 177.604 38.1979 177.438 38.4062C177.292 38.6146 177.219 38.7812 177.219 38.9062C177.219 39.2188 177.625 39.375 178.438 39.375C178.479 39.375 178.635 39.3125 178.906 39.1875L179.344 39.3125C179.385 39.3125 179.49 39.25 179.656 39.125C179.823 38.9792 180.073 38.8646 180.406 38.7812C180.76 38.6979 181.062 38.5729 181.312 38.4062C181.583 38.2396 181.896 38.0938 182.25 37.9688C182.625 37.8438 182.979 37.6458 183.312 37.375C183.646 37.0833 183.969 36.875 184.281 36.75C184.615 36.625 184.917 36.4375 185.188 36.1875C185.479 35.9167 185.802 35.6667 186.156 35.4375C186.51 35.2083 187.073 34.7083 187.844 33.9375C188.344 33.5417 188.688 33.3229 188.875 33.2812C188.917 33.2812 189.094 33.0104 189.406 32.4688C189.74 31.9062 190.115 31.625 190.531 31.625C190.969 31.625 191.188 31.8333 191.188 32.25C191.188 32.4792 191.083 32.6979 190.875 32.9062V33.0938L190.938 33.5938C190.979 33.6562 191 33.75 191 33.875C191 33.9583 190.917 34.0833 190.75 34.25C190.604 34.4167 190.5 34.6354 190.438 34.9062C190.375 35.1562 190.177 35.3229 189.844 35.4062C189.719 35.8646 189.552 36.125 189.344 36.1875C189.156 36.25 188.885 36.4583 188.531 36.8125C188.177 37.1667 187.677 37.5833 187.031 38.0625C186.385 38.5417 185.938 38.9167 185.688 39.1875C185.458 39.4375 185.302 39.5625 185.219 39.5625C185.177 39.5625 185.094 39.5208 184.969 39.4375C184.844 39.3542 184.76 39.3125 184.719 39.3125C184.594 39.3125 184.51 39.4583 184.469 39.75L184.344 40.0625C184.073 40.2292 183.917 40.3125 183.875 40.3125L183.688 40.25H183.562C183.312 40.25 183.188 40.3438 183.188 40.5312L183.375 40.8438V40.9062C183.375 41.1979 183.208 41.3438 182.875 41.3438C182.646 41.3438 181.979 41.7292 180.875 42.5L179.969 42.6875L179.219 43.0938C178.969 42.9479 178.812 42.875 178.75 42.875L178.25 43.0312L177.344 43.0938C177.323 43.0938 176.938 42.8854 176.188 42.4688C175.458 42.0521 175.021 41.6354 174.875 41.2188C174.729 40.8021 174.542 40.3854 174.312 39.9688C174.083 39.5312 173.969 39.2292 173.969 39.0625C173.969 38.0625 174.052 37.3542 174.219 36.9375C174.385 36.5 174.49 36.1771 174.531 35.9688C174.573 35.7604 174.688 35.5417 174.875 35.3125C175.083 35.0625 175.25 34.6667 175.375 34.125C175.979 32.9167 176.396 32.1771 176.625 31.9062C176.854 31.6354 177.031 31.3021 177.156 30.9062L177.562 30.3438C177.604 30.3021 177.667 30.1458 177.75 29.875C177.833 29.5833 177.938 29.4167 178.062 29.375C178.229 29.0833 178.312 28.8958 178.312 28.8125C178.312 28.2083 178.042 27.9062 177.5 27.9062C177.396 27.9062 177.281 28.0208 177.156 28.25C177.031 28.4583 176.74 28.6667 176.281 28.875C175.844 29.0833 175.573 29.2396 175.469 29.3438C175.365 29.4479 175.135 29.5833 174.781 29.75C174.448 29.8958 174.156 30.1354 173.906 30.4688L173.375 30.7188C173.208 31.1146 173.062 31.3333 172.938 31.375C172.812 31.4167 172.427 31.5208 171.781 31.6875C171.74 31.7083 171.635 31.8333 171.469 32.0625C171.302 32.2917 171.062 32.4062 170.75 32.4062C170.5 32.6562 170.25 32.9479 170 33.2812C169.917 33.2812 169.698 33.3646 169.344 33.5312L168.719 33.6875C168.552 33.8125 168.365 34.0104 168.156 34.2812C167.969 34.5521 167.604 34.6875 167.062 34.6875C166.75 34.6875 166.594 34.4375 166.594 33.9375C166.594 32.9167 166.948 32.1042 167.656 31.5C168.385 30.8958 168.917 30.5729 169.25 30.5312C169.583 30.4896 169.792 30.3646 169.875 30.1562C169.958 29.9479 170.156 29.7812 170.469 29.6562C170.802 29.5104 171.177 29.2083 171.594 28.75C172.031 28.2708 172.5 27.9479 173 27.7812L173.375 27.3438ZM223.788 34.4375L224.288 34C224.6 34 224.788 33.8646 224.85 33.5938C224.913 33.3021 225.131 33.0729 225.506 32.9062C225.902 32.7396 226.267 32.4062 226.6 31.9062C226.933 31.3854 227.277 31.125 227.631 31.125C227.756 31.125 227.902 31.2292 228.069 31.4375C228.235 31.6458 228.319 31.8125 228.319 31.9375C228.319 32.625 228.11 33.3333 227.694 34.0625L227.569 34.9375L227.35 35.3438C227.038 35.5104 226.829 35.6875 226.725 35.875C226.642 36.0625 226.402 36.2917 226.006 36.5625L225.694 37C225.235 37.1458 224.923 37.3854 224.756 37.7188C224.61 38.0521 224.392 38.2396 224.1 38.2812C223.829 38.3229 223.527 38.5312 223.194 38.9062C222.985 39.0104 222.735 39.1042 222.444 39.1875L222.381 39.5C222.173 39.7083 221.84 39.875 221.381 40C220.944 40.125 220.61 40.25 220.381 40.375C220.173 40.4792 220.027 40.5312 219.944 40.5312C219.548 40.5312 219.183 40.4583 218.85 40.3125C218.517 40.1458 218.173 40.0417 217.819 40C217.694 39.875 217.621 39.7396 217.6 39.5938C217.579 39.4479 217.475 39.2604 217.288 39.0312C217.1 38.7812 217.006 38.4479 217.006 38.0312L217.131 37.4375C217.131 37.3542 217.079 37.25 216.975 37.125C216.871 37 216.819 36.8958 216.819 36.8125C216.819 36.7292 216.84 36.6667 216.881 36.625C216.923 36.5833 216.944 36.5208 216.944 36.4375C216.944 36.3333 216.923 36.2188 216.881 36.0938C216.84 35.9688 216.819 35.8646 216.819 35.7812L217.006 34.25C217.006 34.125 216.965 34.0625 216.881 34.0625C216.798 34.0625 216.642 34.1667 216.413 34.375C216.204 34.5833 215.954 34.6875 215.663 34.6875C215.496 34.8125 215.36 35.0729 215.256 35.4688C215.09 35.6771 214.881 35.8646 214.631 36.0312L214.506 36.2188C214.465 36.3646 214.308 36.4896 214.038 36.5938C213.767 36.6771 213.579 36.7917 213.475 36.9375L213.163 37.25L212.569 37.1875C212.527 37.2292 212.413 37.4167 212.225 37.75C212.038 38.0625 211.798 38.3229 211.506 38.5312L209.131 40.4688C208.881 40.6354 208.517 40.8438 208.038 41.0938L207.85 41.2812C206.183 42.3854 205.006 42.9375 204.319 42.9375C203.756 42.9375 203.1 42.7812 202.35 42.4688C201.6 42.1562 201.194 41.7812 201.131 41.3438L200.819 40.0625C200.631 39.7708 200.538 39.3646 200.538 38.8438C200.538 38.5938 200.558 38.4271 200.6 38.3438V38.1562L200.538 37.125C200.538 36.875 200.735 36.75 201.131 36.75L201.069 35.9062C201.069 35.8229 201.246 35.5 201.6 34.9375C201.975 34.3542 202.225 34.0208 202.35 33.9375L202.663 33.5312C202.642 33.2812 202.788 33.0208 203.1 32.75C203.413 32.4583 203.663 32.1667 203.85 31.875C204.038 31.5833 204.392 31.2604 204.913 30.9062L205.85 29.9688C206.579 29.2396 207.371 28.6562 208.225 28.2188C208.35 28.1771 208.6 27.9688 208.975 27.5938C209.371 27.2188 209.808 26.9479 210.288 26.7812C210.788 26.5938 211.267 26.3646 211.725 26.0938C212.204 25.8229 212.579 25.6875 212.85 25.6875H213.1C213.183 25.6875 213.735 25.4271 214.756 24.9062H214.944C215.027 24.9062 215.225 24.9896 215.538 25.1562H215.6L216.1 24.9062C216.183 24.8646 216.288 24.8438 216.413 24.8438C217.704 24.8438 218.413 25.7396 218.538 27.5312C218.579 27.9062 218.683 28.0938 218.85 28.0938C219.058 28.0938 219.35 27.7188 219.725 26.9688C220.121 26.1979 220.944 25.8125 222.194 25.8125C223.09 25.8125 223.538 26.3854 223.538 27.5312C223.538 28.8854 222.933 30.1667 221.725 31.375C221.642 31.5417 221.579 31.7292 221.538 31.9375L221.1 33.2188V33.2812C221.1 33.4062 221.006 33.5833 220.819 33.8125C220.652 34.0208 220.569 34.2083 220.569 34.375L220.631 35.1562L220.506 36.0312C220.506 36.4271 220.579 36.6875 220.725 36.8125C221.392 36.6458 221.871 36.375 222.163 36C222.475 35.6042 222.694 35.3854 222.819 35.3438L223.131 35.2188C223.319 34.9062 223.538 34.6458 223.788 34.4375ZM213.413 34.4375C213.496 33.9792 213.746 33.6354 214.163 33.4062C214.6 33.1562 214.86 32.9062 214.944 32.6562C215.34 32.3646 215.902 31.8438 216.631 31.0938C217.381 30.3438 217.756 29.8854 217.756 29.7188C217.756 29.6562 217.715 29.625 217.631 29.625H217.569L217.319 29.7812L216.756 29.7188L216.163 29.7812L215.725 29.5625L215.319 29.625L214.694 29.5C214.36 29.5 214.069 29.5729 213.819 29.7188C213.59 29.8438 213.131 29.9896 212.444 30.1562C211.777 30.3229 211.173 30.6146 210.631 31.0312C210.09 31.4271 209.694 31.625 209.444 31.625C209.298 31.9375 208.808 32.3854 207.975 32.9688C207.475 33.1354 207.152 33.5 207.006 34.0625C206.465 34.5 206.194 34.75 206.194 34.8125L205.975 35.3438C205.808 35.4896 205.6 35.6146 205.35 35.7188C205.1 35.8021 204.954 36.0208 204.913 36.375C204.871 36.7083 204.725 37.0208 204.475 37.3125C204.246 37.5833 204.131 37.8021 204.131 37.9688C204.131 38.9896 204.329 39.5 204.725 39.5C204.892 39.5 205.235 39.3958 205.756 39.1875C206.298 38.9583 206.61 38.8021 206.694 38.7188C206.777 38.6354 206.944 38.5521 207.194 38.4688L207.788 38.1562C207.871 38.0729 207.965 38.0208 208.069 38C208.173 37.9792 208.277 37.9167 208.381 37.8125C208.485 37.6875 208.673 37.5625 208.944 37.4375C209.215 37.2917 209.423 37.1042 209.569 36.875C209.923 36.6667 210.496 36.3438 211.288 35.9062L211.944 35.4062C212.402 35.1979 212.683 35.0208 212.788 34.875C212.892 34.7292 213.1 34.5833 213.413 34.4375ZM264.606 36.375H264.731L265.044 36.5C265.085 36.5 265.127 36.4792 265.169 36.4375C265.169 36.0833 265.335 35.7812 265.669 35.5312C265.773 35.1354 266.002 34.8333 266.356 34.625C266.731 34.4167 267.315 34.0729 268.106 33.5938L268.887 32.9062L269.262 32.7188L269.512 32.4062C269.742 32.1354 269.96 32 270.169 32C270.481 32 270.637 32.1146 270.637 32.3438L270.356 32.9688L270.481 34C270.481 34.375 270.346 34.7083 270.075 35C269.825 35.2917 269.429 35.7188 268.887 36.2812L267.294 37.9688L266.45 38.4062C266.242 38.5312 266.054 38.6771 265.887 38.8438L264.669 39.875C264.669 40.1667 264.575 40.3854 264.387 40.5312H263.887L263.637 40.6562C263.492 41.0521 263.065 41.4375 262.356 41.8125L261.919 42.125C261.773 42.25 261.637 42.3125 261.512 42.3125L260.637 42.1875L260.044 42.3125C259.877 42.3125 259.648 42.2292 259.356 42.0625C259.085 41.8958 258.804 41.7708 258.512 41.6875C258.221 41.5833 257.846 41.1979 257.387 40.5312C256.95 39.8438 256.71 39.3958 256.669 39.1875C256.669 39.1042 256.617 38.9688 256.512 38.7812C256.429 38.5729 256.387 38.4479 256.387 38.4062C256.387 38.3646 256.481 38.1562 256.669 37.7812V37.7188C256.669 37.6562 256.606 37.5104 256.481 37.2812C256.377 37.0521 256.325 36.7708 256.325 36.4375C256.325 36.25 256.262 36.0104 256.137 35.7188C256.304 35.5521 256.387 35.4271 256.387 35.3438C256.387 35.2604 256.356 35.1458 256.294 35C256.231 34.8333 256.2 34.7083 256.2 34.625L256.387 33.0938L256.262 32.3125L256.325 31.5625C256.325 31.125 256.137 30.9062 255.762 30.9062C255.596 30.9062 255.387 31.0208 255.137 31.25L254.919 31.3125C254.356 31.5833 253.96 31.8125 253.731 32C253.502 32.1667 253.262 32.25 253.012 32.25C252.887 32.375 252.648 32.4896 252.294 32.5938L252.044 32.7812C251.96 32.8646 251.794 32.9896 251.544 33.1562C251.544 33.2188 251.148 33.5729 250.356 34.2188C249.585 34.8438 248.887 35.4375 248.262 36C247.637 36.5625 247.179 36.875 246.887 36.9375C246.617 36.9792 246.481 37.2396 246.481 37.7188C246.481 37.8021 246.294 37.9688 245.919 38.2188C245.877 38.2188 245.658 38.4479 245.262 38.9062C244.929 38.6562 244.742 38.5312 244.7 38.5312C244.429 38.5312 244.231 38.875 244.106 39.5625C243.981 39.8333 243.648 40 243.106 40.0625C243.065 40.0833 242.992 40.2396 242.887 40.5312L242.762 40.6562H242.45C242.408 40.6562 242.262 40.7812 242.012 41.0312C241.762 41.2604 241.544 41.4062 241.356 41.4688C241.085 42.0312 240.856 42.3125 240.669 42.3125C240.585 42.3125 240.46 42.2708 240.294 42.1875C240.148 42.1042 239.96 42.0312 239.731 41.9688C239.502 41.9062 239.242 41.6562 238.95 41.2188C238.679 40.7604 238.544 40.375 238.544 40.0625C238.544 37.75 238.992 36.4896 239.887 36.2812L239.95 36.1562V35.9062C239.95 35.6354 240.065 35.4479 240.294 35.3438C240.544 35.2188 240.794 34.9896 241.044 34.6562C241.294 34.3021 241.46 34.1042 241.544 34.0625H241.95C242.033 34.0625 242.075 33.8438 242.075 33.4062C242.075 33.2812 242.127 33.1667 242.231 33.0625C242.335 32.9583 242.398 32.8125 242.419 32.625C242.44 32.4167 242.585 32.0938 242.856 31.6562C243.148 31.1979 243.294 30.9271 243.294 30.8438L243.231 30.7188C242.71 31.1979 242.335 31.4583 242.106 31.5C241.877 31.5417 241.565 31.8438 241.169 32.4062L240.669 32.3125C239.794 32.9583 239.252 33.3229 239.044 33.4062C238.835 33.4896 238.606 33.7292 238.356 34.125C238.356 34.25 238.283 34.3333 238.137 34.375C237.992 34.4167 237.721 34.5833 237.325 34.875H237.137C236.617 34.875 236.356 34.5 236.356 33.75L237.012 31.9688C237.2 31.4062 237.637 30.9375 238.325 30.5625C239.033 30.1667 239.627 29.7917 240.106 29.4375C240.585 29.0833 241.065 28.8958 241.544 28.875L241.762 28.5625C242.471 28.2917 242.95 27.8646 243.2 27.2812C243.45 26.6979 243.794 26.4062 244.231 26.4062C245.377 26.4062 246.252 26.8333 246.856 27.6875C247.46 28.5208 247.762 29.1875 247.762 29.6875L247.825 30.5312C247.825 30.8229 247.762 31.2292 247.637 31.75C247.387 32.125 247.262 32.4062 247.262 32.5938C247.262 32.7604 247.367 32.8438 247.575 32.8438C247.7 32.8438 247.867 32.7604 248.075 32.5938C248.283 32.4062 248.512 32.2396 248.762 32.0938C249.033 31.9479 249.19 31.8229 249.231 31.7188C249.44 31.2188 249.804 30.875 250.325 30.6875C250.846 30.5 251.169 30.3438 251.294 30.2188L251.606 29.9688L251.856 29.5C252.419 29.25 252.794 29.0208 252.981 28.8125C253.169 28.6042 253.419 28.4688 253.731 28.4062C254.044 28.3438 254.398 28.1562 254.794 27.8438L255.262 27.7188L255.7 27.4688C255.742 27.4271 255.867 27.375 256.075 27.3125C256.283 27.25 256.585 27.1458 256.981 27C257.398 26.8333 257.679 26.75 257.825 26.75C258.887 26.75 259.721 27.1771 260.325 28.0312C260.95 28.8854 261.262 29.5729 261.262 30.0938L261.2 30.6562L261.325 31.5V31.625L261.075 33.3438L261.137 33.9375C261.137 34.9167 260.929 35.5938 260.512 35.9688C260.408 36.0104 260.356 36.1146 260.356 36.2812V36.5625L260.981 37.875C261.169 38.3333 261.315 38.5625 261.419 38.5625L262.419 38.2812C262.71 38.1979 262.95 37.9792 263.137 37.625C263.304 37.5417 263.596 37.2917 264.012 36.875C264.137 36.5417 264.335 36.375 264.606 36.375ZM327.462 13.25L327.994 12.75C328.327 11.4167 328.858 10.6458 329.587 10.4375L329.775 10.25C329.525 10 329.4 9.78125 329.4 9.59375C329.4 9.51042 329.442 9.36458 329.525 9.15625L329.65 8.53125C329.692 8.30208 329.848 7.9375 330.119 7.4375C330.39 6.91667 330.577 6.0625 330.681 4.875V4.6875C330.681 4.25 330.462 3.52083 330.025 2.5V2.375C330.025 2 330.15 1.625 330.4 1.25C330.671 0.854167 330.931 0.65625 331.181 0.65625C332.765 0.65625 333.702 0.947917 333.994 1.53125C334.306 2.09375 334.587 2.5 334.837 2.75C335.4 3.14583 335.681 3.95833 335.681 5.1875C335.681 5.95833 335.525 6.47917 335.212 6.75C334.921 7 334.723 7.26042 334.619 7.53125C334.515 7.80208 334.348 8.0625 334.119 8.3125C333.91 8.54167 333.806 8.67708 333.806 8.71875L333.931 9.34375C333.931 9.82292 333.765 10.125 333.431 10.25V10.4375H333.744C333.952 10.4375 334.119 10.375 334.244 10.25C334.39 10.125 334.692 10 335.15 9.875C335.629 9.75 335.962 9.61458 336.15 9.46875C336.337 9.30208 336.504 9.1875 336.65 9.125C336.817 9.0625 337.004 8.96875 337.212 8.84375L339.087 7.8125C339.733 7.45833 340.358 7.15625 340.962 6.90625C341.587 6.65625 342.067 6.36458 342.4 6.03125L343.462 5.71875L343.994 5.78125C344.077 5.78125 344.212 5.63542 344.4 5.34375C344.587 5.03125 344.754 4.875 344.9 4.875L345.275 4.9375C345.608 4.77083 345.837 4.6875 345.962 4.6875L346.369 4.625L347.181 3.90625L347.837 3.84375C348.421 3.32292 349.077 3.09375 349.806 3.15625C349.91 3.09375 350.077 2.95833 350.306 2.75C350.535 2.54167 350.796 2.4375 351.087 2.4375C351.15 2.4375 351.327 2.35417 351.619 2.1875L352.119 1.875C352.285 1.64583 352.473 1.51042 352.681 1.46875L353.462 1.21875C353.671 1.09375 353.817 1.03125 353.9 1.03125L354.306 1.15625C354.931 0.65625 355.4 0.40625 355.712 0.40625C356.9 0.40625 357.494 0.947917 357.494 2.03125C357.494 3.01042 357.087 3.91667 356.275 4.75L354.369 5.90625C354.327 5.92708 354.046 5.98958 353.525 6.09375C353.004 6.17708 351.983 6.60417 350.462 7.375L349.994 7.3125C349.785 7.52083 349.577 7.625 349.369 7.625L348.994 7.5625C348.556 7.77083 348.192 7.90625 347.9 7.96875C347.629 8.03125 347.265 8.19792 346.806 8.46875C346.369 8.71875 345.858 8.91667 345.275 9.0625C344.712 9.20833 344.244 9.39583 343.869 9.625C343.515 9.83333 343.233 9.9375 343.025 9.9375H342.712C342.546 9.9375 341.817 10.2292 340.525 10.8125C340.15 10.9583 339.89 11.0521 339.744 11.0938C339.598 11.1354 339.223 11.2604 338.619 11.4688L337.212 12.2812C337.129 12.3021 336.723 12.5 335.994 12.875H335.4C335.337 12.875 334.962 13.1042 334.275 13.5625C334.233 13.5625 334.16 13.5833 334.056 13.625H333.994L333.556 13.5625C333.473 13.5625 333.317 13.6667 333.087 13.875C332.879 14.0625 332.598 14.2083 332.244 14.3125C331.89 14.4167 331.681 14.5625 331.619 14.75L331.119 15.7188C330.931 16.0521 330.744 16.2708 330.556 16.375C330.39 16.4583 330.233 16.8021 330.087 17.4062L328.306 21.0625L327.931 21.25C328.015 21.6042 328.056 21.8021 328.056 21.8438C327.973 21.9688 327.837 22.2396 327.65 22.6562C327.483 23.0521 327.337 23.3229 327.212 23.4688C327.087 23.6146 326.9 23.9896 326.65 24.5938C328.379 25.6771 329.317 26.1875 329.462 26.125L329.587 26.25V26.4375C329.587 26.6458 329.712 26.8021 329.962 26.9062C330.233 26.9896 330.442 27.0833 330.587 27.1875C330.733 27.2917 331.067 27.3438 331.587 27.3438L332.337 28.0938L332.712 28.0312C332.879 28.0312 333.119 28.1458 333.431 28.375C333.765 28.5833 334.119 28.7708 334.494 28.9375C334.89 29.1042 335.171 29.2604 335.337 29.4062C335.525 29.5521 335.817 29.6771 336.212 29.7812C336.608 29.8854 336.806 29.9688 336.806 30.0312C336.806 30.4062 337.306 30.6562 338.306 30.7812C338.931 31.0938 339.285 31.3438 339.369 31.5312C339.452 31.7188 339.65 31.8646 339.962 31.9688C340.296 32.0729 340.64 32.2396 340.994 32.4688L341.806 32.7812C341.89 32.8646 341.962 32.9792 342.025 33.125C342.087 33.2708 342.358 33.4167 342.837 33.5625C343.317 33.6875 343.598 33.8438 343.681 34.0312C343.765 34.2188 343.931 34.3958 344.181 34.5625L344.744 34.4375C345.785 34.9583 346.431 35.3438 346.681 35.5938C346.806 35.6354 347.035 35.7083 347.369 35.8125C347.723 35.9167 347.962 36.0729 348.087 36.2812C348.212 36.4688 348.462 36.625 348.837 36.75C349.921 37.0833 350.567 37.9583 350.775 39.375C350.587 39.8125 350.348 40.2604 350.056 40.7188C349.64 40.8854 349.348 41.0208 349.181 41.125C349.015 41.2083 348.629 41.3229 348.025 41.4688L347.775 41.6875C347.775 41.7292 347.733 41.75 347.65 41.75C346.712 41.75 346.108 41.2708 345.837 40.3125C345.796 40.1875 345.692 40.0625 345.525 39.9375C345.358 40.1458 345.233 40.25 345.15 40.25C344.9 40.25 344.64 40.1667 344.369 40C344.098 39.8125 343.765 39.5312 343.369 39.1562C342.994 38.7812 342.525 38.4167 341.962 38.0625C341.421 37.7083 341.004 37.4167 340.712 37.1875C339.858 36.3125 338.671 35.5417 337.15 34.875C337.025 34.7917 336.848 34.6458 336.619 34.4375C336.41 34.2292 335.879 33.9167 335.025 33.5C334.171 33.0625 333.358 32.3125 332.587 31.25L332.337 31.125C332.004 30.8542 331.702 30.5938 331.431 30.3438C331.181 30.0938 330.827 29.9271 330.369 29.8438C329.931 29.5729 329.567 29.2917 329.275 29C327.087 27.5417 325.827 26.7292 325.494 26.5625C325.494 27.5417 325.348 28.0312 325.056 28.0312L324.712 27.9688C324.629 27.9688 324.504 28.2917 324.337 28.9375V29.375L323.931 30.7188C323.681 31.6354 323.348 32.125 322.931 32.1875V32.6562C322.515 33.3229 322.254 33.8438 322.15 34.2188C322.067 34.5729 321.921 34.9792 321.712 35.4375C321.504 35.875 321.317 36.4167 321.15 37.0625C320.983 37.7083 320.598 38.7292 319.994 40.125V40.1875L320.181 40.7188V40.9688C320.181 41.1354 320.098 41.4583 319.931 41.9375C320.14 42.3542 320.244 42.5833 320.244 42.625C320.244 42.75 320.192 42.9271 320.087 43.1562C319.983 43.3646 319.89 43.5625 319.806 43.75C319.723 43.9375 319.337 44.1458 318.65 44.375C318.525 44.3125 318.327 44.1562 318.056 43.9062C317.327 43.8229 316.796 43.4792 316.462 42.875C316.462 42.8333 316.39 42.6667 316.244 42.375C316.098 42.0833 316.025 41.8021 316.025 41.5312C316.025 41.4896 315.952 41.25 315.806 40.8125C315.66 40.3542 315.587 40.0208 315.587 39.8125C315.587 38.5625 315.9 37.4792 316.525 36.5625L316.587 36.1562C316.65 35.9271 316.785 35.6042 316.994 35.1875L317.431 34.25L317.494 33.8125C317.535 33.5 317.629 33.2396 317.775 33.0312C317.942 32.8021 318.233 32.2292 318.65 31.3125L318.9 30.9062C319.129 30.3854 319.265 30.0938 319.306 30.0312C319.369 29.9688 319.4 29.8854 319.4 29.7812L319.462 29.4375C319.608 29.3125 319.681 29.1667 319.681 29C319.765 28.9583 319.91 28.8542 320.119 28.6875C320.306 28.1042 320.567 27.4583 320.9 26.75L321.869 24.625C321.931 24.5208 321.962 24.4479 321.962 24.4062C321.962 24.2604 320.39 23.0833 317.244 20.875C316.89 20.625 316.712 20.2812 316.712 19.8438C316.712 19.1562 317.421 18.4792 318.837 17.8125C318.962 17.7708 319.41 17.5 320.181 17C320.952 16.5 321.504 16.25 321.837 16.25C321.962 16.25 322.515 15.9688 323.494 15.4062C324.494 14.8229 325.035 14.5208 325.119 14.5C325.202 14.4792 325.275 14.4375 325.337 14.375C325.4 14.3125 325.556 14.2292 325.806 14.125C326.077 14.0208 326.421 13.8542 326.837 13.625C327.254 13.3958 327.462 13.2708 327.462 13.25ZM322.556 22.0312L322.931 22.2188H323.056C323.244 22.2188 323.692 21.2604 324.4 19.3438L325.369 17.0312L324.994 16.9688C324.89 16.9688 324.754 17.0729 324.587 17.2812C322.608 18.0312 321.4 18.5833 320.962 18.9375L320.681 19.0938C320.223 19.3021 319.994 19.6771 319.994 20.2188C320.702 20.9271 321.556 21.5312 322.556 22.0312ZM376.375 39.25L374.906 40.5312C374.823 40.4479 374.74 40.4062 374.656 40.4062C374.448 40.4062 374.188 40.5938 373.875 40.9688C373.583 41.3438 373.375 41.5312 373.25 41.5312L372.938 41.4688C372.417 41.8646 372.042 42.0938 371.812 42.1562C371.583 42.2188 371.302 42.3333 370.969 42.5C370.656 42.6667 370.365 42.7604 370.094 42.7812C369.844 42.8021 369.635 42.8958 369.469 43.0625C369.302 43.2083 368.896 43.2812 368.25 43.2812L367.75 43.2188C367.479 43.3438 367.302 43.4062 367.219 43.4062C367.052 43.4062 366.875 43.3229 366.688 43.1562C366.5 42.9688 366.292 42.8646 366.062 42.8438C365.854 42.8229 365.635 42.6771 365.406 42.4062C365.177 42.1354 364.958 41.9479 364.75 41.8438C364.562 41.7396 364.406 41.5938 364.281 41.4062L363.844 41.0312C363.49 40.7812 363.146 40.3229 362.812 39.6562C362.479 38.9896 362.312 38.4688 362.312 38.0938V37.9688L362.375 37.375L362.312 36.6875C362.396 36.6042 362.5 36.4271 362.625 36.1562V35.1562L363.375 32.6562C363.417 32.5521 363.333 32.4167 363.125 32.25C362.917 32.5625 362.708 32.75 362.5 32.8125C362.292 32.875 362.146 33.0208 362.062 33.25C362 33.4792 361.885 33.5938 361.719 33.5938L361.344 33.4688C361.302 33.5104 361.208 33.7292 361.062 34.125C360.917 34.5 360.667 34.6875 360.312 34.6875C359.938 34.6875 359.75 34.5417 359.75 34.25L359.812 33.6875L359.625 32.9062C359.625 32.7396 359.792 32.4167 360.125 31.9375C360.458 31.4375 360.76 31.1562 361.031 31.0938C361.323 31.0104 361.562 30.8125 361.75 30.5C361.958 30.1667 362.396 29.7708 363.062 29.3125C363.438 29.2292 363.76 28.9583 364.031 28.5C364.323 28.2708 364.698 28.0833 365.156 27.9375C365.635 27.7917 365.99 27.5833 366.219 27.3125C366.469 27.0208 367.177 26.5833 368.344 26C369.531 25.3958 370.396 25.0938 370.938 25.0938C371.104 25.0938 371.333 25.0521 371.625 24.9688C371.917 24.8646 372.188 24.7812 372.438 24.7188C372.688 24.6354 372.948 24.5208 373.219 24.375C373.49 24.2083 373.708 24.125 373.875 24.125L374.781 24.4375C375.448 24.625 375.854 24.7604 376 24.8438C376.042 24.8854 376.25 24.9792 376.625 25.125C377.021 25.25 377.417 25.4271 377.812 25.6562C378.229 25.8854 378.438 26.3125 378.438 26.9375C378.083 27.4583 377.906 27.7396 377.906 27.7812C377.906 27.8646 378.146 27.9896 378.625 28.1562C378.792 28.4688 379.042 28.875 379.375 29.375L379.719 30.4688L379.781 33.0312L379.719 33.2812C379.49 33.4896 379.375 33.625 379.375 33.6875L379.469 34.3125L379.219 35.1875C379.156 35.4583 379.052 35.6354 378.906 35.7188C378.76 35.8021 378.667 35.9062 378.625 36.0312L378.438 36.2812C378.396 36.3438 378.302 36.5312 378.156 36.8438C378.031 37.1354 377.885 37.3646 377.719 37.5312C377.552 37.6979 377.448 37.8958 377.406 38.125C377.365 38.3542 377.26 38.5208 377.094 38.625C376.927 38.7292 376.802 38.8438 376.719 38.9688C376.656 39.0729 376.542 39.1667 376.375 39.25ZM366.656 40.0625L366.781 40.7812L366.844 40.8438H367.344L367.5 40.9062C367.917 40.9896 368.229 41.0312 368.438 41.0312C369.083 41.0312 369.594 40.875 369.969 40.5625C370.365 40.2292 370.677 40.0625 370.906 40.0625C371.135 40.0625 371.323 39.9062 371.469 39.5938C371.635 39.2812 371.74 39.125 371.781 39.125H372.219L372.344 39.0625C372.344 38.5833 372.552 38.2396 372.969 38.0312C373.406 37.8229 373.708 37.5521 373.875 37.2188C374.062 36.8646 374.271 36.6042 374.5 36.4375C374.729 36.25 374.885 36.0104 374.969 35.7188L375.219 35.3438C375.302 35.2604 375.344 35.1042 375.344 34.875L375.938 33.75C376.062 33.2292 376.125 32.8229 376.125 32.5312C376.125 32.0938 375.896 31.75 375.438 31.5C375 31.25 374.781 30.7604 374.781 30.0312C374.781 29.5521 375.021 29.1146 375.5 28.7188C376 28.3021 376.25 28.0521 376.25 27.9688C376.25 27.8438 376.188 27.7812 376.062 27.7812C376 27.7812 375.76 27.8646 375.344 28.0312C375.198 28.3229 374.458 28.7083 373.125 29.1875C372.688 28.9792 372.448 28.875 372.406 28.875C372.281 28.875 372.156 29 372.031 29.25C371.906 29.5 371.781 29.6771 371.656 29.7812H371.25C371.208 29.7812 371.073 29.9167 370.844 30.1875C370.615 30.4583 370.323 30.5938 369.969 30.5938L369.594 30.9688C369.615 31.3021 369.406 31.6458 368.969 32L368.625 32.4062C368.417 32.6562 368.146 32.9479 367.812 33.2812L367.25 34.6875C367.021 35.2292 366.906 35.6354 366.906 35.9062C366.844 36.0312 366.698 36.1667 366.469 36.3125C366.26 36.4375 366.156 36.6042 366.156 36.8125C366.156 36.8542 366.229 36.9583 366.375 37.125C366.521 37.2917 366.594 37.4167 366.594 37.5L366.469 37.9062L366.344 39.0625L366.656 40.0625ZM395.538 33.4688V33.1562C395.538 32.9479 395.746 32.5 396.163 31.8125C396.579 31.125 397.058 30.6771 397.6 30.4688C397.642 30.4688 397.663 30.4479 397.663 30.4062L397.6 29.9062C397.683 29.8229 397.892 29.5521 398.225 29.0938C398.558 28.6354 398.881 28.4375 399.194 28.5C399.423 28.1667 399.715 27.8958 400.069 27.6875C400.423 27.4583 400.746 27.1667 401.038 26.8125L402.194 26.0938C403.006 25.5521 403.6 25.2812 403.975 25.2812H404.444C404.694 24.8646 405.027 24.6562 405.444 24.6562C405.84 24.6562 406.1 24.7188 406.225 24.8438C406.267 24.8854 406.308 24.9062 406.35 24.9062C406.371 24.9062 406.496 24.8229 406.725 24.6562C406.954 24.4896 407.235 24.4062 407.569 24.4062C407.652 24.4062 408.121 24.5729 408.975 24.9062C409.225 24.6562 409.465 24.5312 409.694 24.5312C409.777 24.5312 409.923 24.5938 410.131 24.7188C410.34 24.8438 410.548 24.9583 410.756 25.0625C410.985 25.1458 411.204 25.5312 411.413 26.2188C411.621 26.8854 411.725 27.2604 411.725 27.3438C411.725 27.6771 411.444 28.0729 410.881 28.5312C410.34 28.9688 409.829 29.1875 409.35 29.1875C409.183 29.1875 408.975 29.0417 408.725 28.75C408.1 28.625 407.569 28.4688 407.131 28.2812C406.548 28.4062 406.1 28.5625 405.788 28.75H405.725L405.444 28.5L405.194 28.4375H405.131C405.069 28.5208 404.985 28.6667 404.881 28.875C404.548 29.1042 404.256 29.2604 404.006 29.3438C403.777 29.4062 403.59 29.5208 403.444 29.6875C403.298 29.8333 403.048 29.9896 402.694 30.1562C402.36 30.3229 402.11 30.5521 401.944 30.8438C401.527 31.0729 401.225 31.2083 401.038 31.25H400.85C400.683 31.5833 400.298 32.1354 399.694 32.9062L398.881 34.25C398.694 34.4167 398.465 34.6146 398.194 34.8438C397.923 35.0521 397.788 35.2396 397.788 35.4062C397.788 35.4479 397.808 35.5521 397.85 35.7188V36.0312C397.85 36.1562 397.746 36.3125 397.538 36.5C397.35 36.6667 397.256 36.7917 397.256 36.875L397.319 37.5625L397.069 38.6562C397.069 39.3021 397.538 39.625 398.475 39.625H398.944L400.288 39.4062C400.725 39.3438 401.09 39.2812 401.381 39.2188C401.673 39.1562 401.84 39.125 401.881 39.125C401.923 39.125 402.09 39.0104 402.381 38.7812H402.694L402.975 38.7188C403.058 38.2812 403.652 37.9167 404.756 37.625C405.006 37.25 405.423 36.9792 406.006 36.8125C406.61 36.625 407.215 36.2396 407.819 35.6562H408.288C408.35 35.6562 408.538 35.5417 408.85 35.3125C409.183 35.0625 409.517 34.8646 409.85 34.7188C410.204 34.5729 410.423 34.4479 410.506 34.3438C410.59 34.2396 410.746 34.1458 410.975 34.0625C411.35 33.4792 411.798 33.1146 412.319 32.9688L412.444 32.8438C412.777 32.5521 412.985 32.4062 413.069 32.4062L413.444 32.4688C413.652 32.4688 413.777 32.3438 413.819 32.0938C413.881 31.8229 414.215 31.4688 414.819 31.0312C415.444 30.5729 415.84 30.3438 416.006 30.3438C416.402 30.3438 416.6 30.5521 416.6 30.9688C416.6 31.2812 416.423 31.4583 416.069 31.5C416.298 32.0417 416.413 32.3438 416.413 32.4062C416.413 33.0938 416.069 33.5417 415.381 33.75C415.298 33.7917 415.256 33.8542 415.256 33.9375L415.194 34.5C415.215 34.5 415.215 34.5208 415.194 34.5625C415.173 34.5833 415.131 34.625 415.069 34.6875L414.6 34.75L414.475 34.9375C414.017 35.1875 413.485 35.6146 412.881 36.2188L412.256 36.875H412.163C411.954 36.6667 411.788 36.5625 411.663 36.5625C411.579 36.5625 411.475 36.7083 411.35 37C410.642 37.7083 410.131 38.1146 409.819 38.2188C409.694 38.2604 409.475 38.4271 409.163 38.7188L408.538 39.125H408.069C408.006 39.1875 407.944 39.2812 407.881 39.4062C407.84 39.5104 407.663 39.6771 407.35 39.9062C407.038 40.1354 406.808 40.3438 406.663 40.5312C406.538 40.6979 406.35 40.8229 406.1 40.9062L405.538 40.7812C405.35 41.1146 405.006 41.2812 404.506 41.2812C404.381 41.3646 404.194 41.5312 403.944 41.7812C403.715 42.0104 403.558 42.125 403.475 42.125C403.392 42.125 403.173 42 402.819 41.75H402.756C402.548 41.75 402.444 41.9062 402.444 42.2188C402.444 42.5312 402.246 42.6979 401.85 42.7188C401.475 42.7396 401.121 42.8438 400.788 43.0312H400.725C400.246 43.0312 399.902 42.9479 399.694 42.7812C399.485 42.5938 399.298 42.4583 399.131 42.375C398.485 42.5833 398.142 42.6875 398.1 42.6875C397.85 42.6875 397.61 42.5833 397.381 42.375L396.038 41.6875C395.954 41.625 395.808 41.3438 395.6 40.8438L395.413 40.5938C394.746 40.4688 394.298 39.7812 394.069 38.5312L393.819 37.7812C393.777 37.7396 393.756 37.6458 393.756 37.5C393.756 37.2917 393.84 36.9792 394.006 36.5625C394.173 36.125 394.34 35.5521 394.506 34.8438C394.673 34.1146 395.017 33.6562 395.538 33.4688ZM424.919 31.125L425.169 30.7812C425.71 30.6562 426.054 30.4479 426.2 30.1562C426.263 30.0104 426.783 29.4688 427.763 28.5312C428.742 27.5938 429.283 27.0938 429.388 27.0312C430.054 25.8229 430.46 24.9167 430.606 24.3125C430.856 24.1875 430.981 24.0417 430.981 23.875L431.231 23.375L431.513 23.3125L431.638 23.1875V22.9062C431.638 22.5312 432.044 21.6562 432.856 20.2812C433.669 18.5938 434.106 17.6667 434.169 17.5C434.231 17.3125 434.356 17.0521 434.544 16.7188C434.731 16.3646 435.013 15.6979 435.388 14.7188C435.783 13.7396 436.388 12.7188 437.2 11.6562C437.283 11.6146 437.408 11.3854 437.575 10.9688C437.742 10.5312 438.002 10.1042 438.356 9.6875L438.731 9.03125C438.856 8.82292 439.075 8.45833 439.388 7.9375C439.7 7.41667 439.981 7.01042 440.231 6.71875C440.502 6.40625 440.7 6.08333 440.825 5.75C440.971 5.41667 441.138 5.17708 441.325 5.03125C441.513 4.88542 441.7 4.625 441.888 4.25C442.096 3.85417 442.408 3.65625 442.825 3.65625C443.638 3.65625 444.221 3.98958 444.575 4.65625C444.95 5.32292 445.138 5.90625 445.138 6.40625C445.138 6.46875 445.013 6.91667 444.763 7.75L444.294 10.5625C443.877 10.7708 443.669 11.0104 443.669 11.2812C443.669 12.3854 443.242 13.5312 442.388 14.7188C442.304 14.8021 442.231 15.0729 442.169 15.5312C442.127 15.9896 441.95 16.3646 441.638 16.6562C441.325 16.9479 441.044 17.4375 440.794 18.125L437.888 22.2812L437.638 22.5312C437.513 22.6146 437.367 22.7917 437.2 23.0625L436.7 22.9062C436.138 22.9062 435.856 23.0833 435.856 23.4375C435.856 23.5625 435.898 23.7292 435.981 23.9375V24C435.981 24.0208 435.21 25.1146 433.669 27.2812C433.585 27.4062 433.44 27.8125 433.231 28.5L432.794 29.4375C432.356 30.0417 432.044 30.6354 431.856 31.2188C431.69 31.7812 431.46 32.2396 431.169 32.5938C430.752 33.5312 430.544 34.0208 430.544 34.0625C430.544 34.1875 430.606 34.25 430.731 34.25C430.856 34.25 431.148 33.9375 431.606 33.3125C432.085 32.6875 432.471 32.2708 432.763 32.0625C433.075 31.8542 433.335 31.5625 433.544 31.1875L433.856 30.9688C433.94 30.9271 434.117 30.8021 434.388 30.5938L434.7 30.6562C434.867 30.5312 434.971 30.3854 435.013 30.2188C435.054 30.0521 435.117 29.9271 435.2 29.8438C435.742 29.7812 436.075 29.5833 436.2 29.25C436.346 28.9167 436.513 28.75 436.7 28.75C436.867 28.75 437.085 28.5625 437.356 28.1875C437.627 27.7917 438.002 27.4792 438.481 27.25C438.981 27 439.346 26.7812 439.575 26.5938C439.825 26.4062 440.315 26.1875 441.044 25.9375C441.773 25.6667 442.263 25.5312 442.513 25.5312H442.7L442.95 25.5938L443.419 25.5312C444.148 25.5312 444.877 25.7396 445.606 26.1562C446.335 26.5521 446.648 27.1771 446.544 28.0312L446.294 29.9688L445.95 31.5C445.908 31.75 445.742 32.3021 445.45 33.1562C445.158 34.0104 445.013 34.5 445.013 34.625L444.888 35.2188L445.013 36.0312L444.95 36.6875C444.95 36.8958 445.054 37 445.263 37C445.346 37 445.575 36.8125 445.95 36.4375C446.179 36.4792 446.398 36.3542 446.606 36.0625C446.815 35.7708 447.096 35.4688 447.45 35.1562C447.45 35.0729 447.585 35 447.856 34.9375C448.127 34.8542 448.502 34.6042 448.981 34.1875C449.065 34 449.471 33.6042 450.2 33C450.929 32.375 451.627 31.8958 452.294 31.5625L452.481 31.3125C452.835 30.9583 453.158 30.7812 453.45 30.7812C453.742 30.7812 453.888 30.9375 453.888 31.25C453.888 31.4583 453.835 31.6771 453.731 31.9062C453.627 32.1354 453.554 32.4375 453.513 32.8125C453.471 33.1667 453.263 33.6875 452.888 34.375L452.763 34.6875C452.617 35.0417 452.44 35.25 452.231 35.3125C452.023 35.375 451.794 35.5521 451.544 35.8438C451.315 36.1146 450.825 36.375 450.075 36.625C449.742 37.25 449.481 37.5625 449.294 37.5625L448.731 37.3125C448.294 37.6667 448.075 38.0312 448.075 38.4062C447.533 38.8646 447.21 39.1667 447.106 39.3125L446.481 39.25C446.315 39.25 446.231 39.4792 446.231 39.9375C446.231 39.9792 446.013 40.125 445.575 40.375C445.158 40.6042 444.835 40.8125 444.606 41C444.377 41.1875 443.888 41.2812 443.138 41.2812C443.054 41.2812 442.929 41.2083 442.763 41.0625C442.596 40.9167 442.346 40.7917 442.013 40.6875C441.7 40.5833 441.481 40.3438 441.356 39.9688C441.231 39.5729 441.096 39.2708 440.95 39.0625C440.804 38.8333 440.731 38.6562 440.731 38.5312L440.794 37.9062L440.638 37.25L440.919 36.8125C440.794 36.5208 440.731 36.3229 440.731 36.2188L441.044 34.3125C441.273 32.9375 441.46 32.0417 441.606 31.625C441.648 31.5833 441.669 31.4583 441.669 31.25L441.606 30.4688L441.669 30.0312C441.669 29.7188 441.565 29.5521 441.356 29.5312C441.148 29.5104 441.023 29.4583 440.981 29.375C440.71 29.25 440.554 29.1875 440.513 29.1875C440.346 29.1875 440.2 29.3229 440.075 29.5938C439.95 29.8438 439.783 30.0729 439.575 30.2812L438.794 30.1562V30.2188C438.794 30.3854 438.513 30.7083 437.95 31.1875C437.429 31.3125 436.981 31.5833 436.606 32C436.44 32 436.148 32.1667 435.731 32.5C435.335 32.8125 435.075 32.9896 434.95 33.0312L434.7 33.5312L434.2 33.6875C434.054 34.1042 433.71 34.375 433.169 34.5L432.856 35.0938C432.419 35.1354 432.117 35.3646 431.95 35.7812C431.783 36.1771 431.658 36.375 431.575 36.375C431.533 36.375 431.46 36.3542 431.356 36.3125C431.273 36.25 431.19 36.2188 431.106 36.2188C430.648 36.2188 430.398 36.5625 430.356 37.25C430.356 37.3333 429.929 37.8229 429.075 38.7188C428.221 39.6146 427.763 40.0729 427.7 40.0938C427.638 40.1146 427.513 40.3333 427.325 40.75C427.158 41.1458 426.919 41.4479 426.606 41.6562C426.294 41.8438 426.054 42 425.888 42.125C425.742 42.25 425.627 42.3125 425.544 42.3125C425.106 42.3125 424.752 42 424.481 41.375C424.21 40.75 424.075 40.4271 424.075 40.4062L424.263 39.75L424.2 39.1875C424.2 39.1667 424.325 38.75 424.575 37.9375C424.846 37.1042 425.148 36.4583 425.481 36C425.815 35.5208 426.075 34.75 426.263 33.6875C425.325 34.3125 424.763 34.625 424.575 34.625C424.158 34.625 423.95 34.3542 423.95 33.8125C423.95 32.8125 424.273 31.9167 424.919 31.125ZM485.55 34.4375L486.05 34C486.363 34 486.55 33.8646 486.613 33.5938C486.675 33.3021 486.894 33.0729 487.269 32.9062C487.665 32.7396 488.029 32.4062 488.363 31.9062C488.696 31.3854 489.04 31.125 489.394 31.125C489.519 31.125 489.665 31.2292 489.831 31.4375C489.998 31.6458 490.081 31.8125 490.081 31.9375C490.081 32.625 489.873 33.3333 489.456 34.0625L489.331 34.9375L489.113 35.3438C488.8 35.5104 488.592 35.6875 488.488 35.875C488.404 36.0625 488.165 36.2917 487.769 36.5625L487.456 37C486.998 37.1458 486.685 37.3854 486.519 37.7188C486.373 38.0521 486.154 38.2396 485.863 38.2812C485.592 38.3229 485.29 38.5312 484.956 38.9062C484.748 39.0104 484.498 39.1042 484.206 39.1875L484.144 39.5C483.935 39.7083 483.602 39.875 483.144 40C482.706 40.125 482.373 40.25 482.144 40.375C481.935 40.4792 481.79 40.5312 481.706 40.5312C481.31 40.5312 480.946 40.4583 480.613 40.3125C480.279 40.1458 479.935 40.0417 479.581 40C479.456 39.875 479.383 39.7396 479.363 39.5938C479.342 39.4479 479.238 39.2604 479.05 39.0312C478.863 38.7812 478.769 38.4479 478.769 38.0312L478.894 37.4375C478.894 37.3542 478.842 37.25 478.738 37.125C478.633 37 478.581 36.8958 478.581 36.8125C478.581 36.7292 478.602 36.6667 478.644 36.625C478.685 36.5833 478.706 36.5208 478.706 36.4375C478.706 36.3333 478.685 36.2188 478.644 36.0938C478.602 35.9688 478.581 35.8646 478.581 35.7812L478.769 34.25C478.769 34.125 478.727 34.0625 478.644 34.0625C478.56 34.0625 478.404 34.1667 478.175 34.375C477.967 34.5833 477.717 34.6875 477.425 34.6875C477.258 34.8125 477.123 35.0729 477.019 35.4688C476.852 35.6771 476.644 35.8646 476.394 36.0312L476.269 36.2188C476.227 36.3646 476.071 36.4896 475.8 36.5938C475.529 36.6771 475.342 36.7917 475.238 36.9375L474.925 37.25L474.331 37.1875C474.29 37.2292 474.175 37.4167 473.988 37.75C473.8 38.0625 473.56 38.3229 473.269 38.5312L470.894 40.4688C470.644 40.6354 470.279 40.8438 469.8 41.0938L469.613 41.2812C467.946 42.3854 466.769 42.9375 466.081 42.9375C465.519 42.9375 464.863 42.7812 464.113 42.4688C463.363 42.1562 462.956 41.7812 462.894 41.3438L462.581 40.0625C462.394 39.7708 462.3 39.3646 462.3 38.8438C462.3 38.5938 462.321 38.4271 462.363 38.3438V38.1562L462.3 37.125C462.3 36.875 462.498 36.75 462.894 36.75L462.831 35.9062C462.831 35.8229 463.008 35.5 463.363 34.9375C463.738 34.3542 463.988 34.0208 464.113 33.9375L464.425 33.5312C464.404 33.2812 464.55 33.0208 464.863 32.75C465.175 32.4583 465.425 32.1667 465.613 31.875C465.8 31.5833 466.154 31.2604 466.675 30.9062L467.613 29.9688C468.342 29.2396 469.133 28.6562 469.988 28.2188C470.113 28.1771 470.363 27.9688 470.738 27.5938C471.133 27.2188 471.571 26.9479 472.05 26.7812C472.55 26.5938 473.029 26.3646 473.488 26.0938C473.967 25.8229 474.342 25.6875 474.613 25.6875H474.863C474.946 25.6875 475.498 25.4271 476.519 24.9062H476.706C476.79 24.9062 476.988 24.9896 477.3 25.1562H477.363L477.863 24.9062C477.946 24.8646 478.05 24.8438 478.175 24.8438C479.467 24.8438 480.175 25.7396 480.3 27.5312C480.342 27.9062 480.446 28.0938 480.613 28.0938C480.821 28.0938 481.113 27.7188 481.488 26.9688C481.883 26.1979 482.706 25.8125 483.956 25.8125C484.852 25.8125 485.3 26.3854 485.3 27.5312C485.3 28.8854 484.696 30.1667 483.488 31.375C483.404 31.5417 483.342 31.7292 483.3 31.9375L482.863 33.2188V33.2812C482.863 33.4062 482.769 33.5833 482.581 33.8125C482.415 34.0208 482.331 34.2083 482.331 34.375L482.394 35.1562L482.269 36.0312C482.269 36.4271 482.342 36.6875 482.488 36.8125C483.154 36.6458 483.633 36.375 483.925 36C484.238 35.6042 484.456 35.3854 484.581 35.3438L484.894 35.2188C485.081 34.9062 485.3 34.6458 485.55 34.4375ZM475.175 34.4375C475.258 33.9792 475.508 33.6354 475.925 33.4062C476.363 33.1562 476.623 32.9062 476.706 32.6562C477.102 32.3646 477.665 31.8438 478.394 31.0938C479.144 30.3438 479.519 29.8854 479.519 29.7188C479.519 29.6562 479.477 29.625 479.394 29.625H479.331L479.081 29.7812L478.519 29.7188L477.925 29.7812L477.488 29.5625L477.081 29.625L476.456 29.5C476.123 29.5 475.831 29.5729 475.581 29.7188C475.352 29.8438 474.894 29.9896 474.206 30.1562C473.54 30.3229 472.935 30.6146 472.394 31.0312C471.852 31.4271 471.456 31.625 471.206 31.625C471.06 31.9375 470.571 32.3854 469.738 32.9688C469.238 33.1354 468.915 33.5 468.769 34.0625C468.227 34.5 467.956 34.75 467.956 34.8125L467.738 35.3438C467.571 35.4896 467.363 35.6146 467.113 35.7188C466.863 35.8021 466.717 36.0208 466.675 36.375C466.633 36.7083 466.488 37.0208 466.238 37.3125C466.008 37.5833 465.894 37.8021 465.894 37.9688C465.894 38.9896 466.092 39.5 466.488 39.5C466.654 39.5 466.998 39.3958 467.519 39.1875C468.06 38.9583 468.373 38.8021 468.456 38.7188C468.54 38.6354 468.706 38.5521 468.956 38.4688L469.55 38.1562C469.633 38.0729 469.727 38.0208 469.831 38C469.935 37.9792 470.04 37.9167 470.144 37.8125C470.248 37.6875 470.435 37.5625 470.706 37.4375C470.977 37.2917 471.185 37.1042 471.331 36.875C471.685 36.6667 472.258 36.3438 473.05 35.9062L473.706 35.4062C474.165 35.1979 474.446 35.0208 474.55 34.875C474.654 34.7292 474.863 34.5833 475.175 34.4375ZM504.775 27.3438L505.244 27.2188L505.431 26.8125C506.452 26.2083 507.181 25.6354 507.619 25.0938C507.66 25.0104 507.754 24.9271 507.9 24.8438C508.046 24.7604 508.202 24.6146 508.369 24.4062C509.14 23.6354 510.056 23.25 511.119 23.25C512.369 23.25 513.035 24.0104 513.119 25.5312L513.306 26C513.473 26.2917 513.702 26.8854 513.994 27.7812C514.306 28.6771 514.462 29.2292 514.462 29.4375C514.462 30 514.285 30.5625 513.931 31.125C513.64 31.2708 512.942 32.0521 511.837 33.4688L511.525 33.6875C511.358 34.0625 511.14 34.4375 510.869 34.8125C510.452 34.9583 510.244 35.1146 510.244 35.2812V35.8438C510.244 35.8854 510.192 35.9688 510.087 36.0938C510.004 36.2188 509.879 36.4583 509.712 36.8125L509.462 37.1875C509.379 37.2708 509.296 37.4479 509.212 37.7188C509.129 37.9688 509.004 38.1979 508.837 38.4062C508.692 38.6146 508.619 38.7812 508.619 38.9062C508.619 39.2188 509.025 39.375 509.837 39.375C509.879 39.375 510.035 39.3125 510.306 39.1875L510.744 39.3125C510.785 39.3125 510.89 39.25 511.056 39.125C511.223 38.9792 511.473 38.8646 511.806 38.7812C512.16 38.6979 512.462 38.5729 512.712 38.4062C512.983 38.2396 513.296 38.0938 513.65 37.9688C514.025 37.8438 514.379 37.6458 514.712 37.375C515.046 37.0833 515.369 36.875 515.681 36.75C516.015 36.625 516.317 36.4375 516.587 36.1875C516.879 35.9167 517.202 35.6667 517.556 35.4375C517.91 35.2083 518.473 34.7083 519.244 33.9375C519.744 33.5417 520.087 33.3229 520.275 33.2812C520.317 33.2812 520.494 33.0104 520.806 32.4688C521.14 31.9062 521.515 31.625 521.931 31.625C522.369 31.625 522.587 31.8333 522.587 32.25C522.587 32.4792 522.483 32.6979 522.275 32.9062V33.0938L522.337 33.5938C522.379 33.6562 522.4 33.75 522.4 33.875C522.4 33.9583 522.317 34.0833 522.15 34.25C522.004 34.4167 521.9 34.6354 521.837 34.9062C521.775 35.1562 521.577 35.3229 521.244 35.4062C521.119 35.8646 520.952 36.125 520.744 36.1875C520.556 36.25 520.285 36.4583 519.931 36.8125C519.577 37.1667 519.077 37.5833 518.431 38.0625C517.785 38.5417 517.337 38.9167 517.087 39.1875C516.858 39.4375 516.702 39.5625 516.619 39.5625C516.577 39.5625 516.494 39.5208 516.369 39.4375C516.244 39.3542 516.16 39.3125 516.119 39.3125C515.994 39.3125 515.91 39.4583 515.869 39.75L515.744 40.0625C515.473 40.2292 515.317 40.3125 515.275 40.3125L515.087 40.25H514.962C514.712 40.25 514.587 40.3438 514.587 40.5312L514.775 40.8438V40.9062C514.775 41.1979 514.608 41.3438 514.275 41.3438C514.046 41.3438 513.379 41.7292 512.275 42.5L511.369 42.6875L510.619 43.0938C510.369 42.9479 510.212 42.875 510.15 42.875L509.65 43.0312L508.744 43.0938C508.723 43.0938 508.337 42.8854 507.587 42.4688C506.858 42.0521 506.421 41.6354 506.275 41.2188C506.129 40.8021 505.942 40.3854 505.712 39.9688C505.483 39.5312 505.369 39.2292 505.369 39.0625C505.369 38.0625 505.452 37.3542 505.619 36.9375C505.785 36.5 505.89 36.1771 505.931 35.9688C505.973 35.7604 506.087 35.5417 506.275 35.3125C506.483 35.0625 506.65 34.6667 506.775 34.125C507.379 32.9167 507.796 32.1771 508.025 31.9062C508.254 31.6354 508.431 31.3021 508.556 30.9062L508.962 30.3438C509.004 30.3021 509.067 30.1458 509.15 29.875C509.233 29.5833 509.337 29.4167 509.462 29.375C509.629 29.0833 509.712 28.8958 509.712 28.8125C509.712 28.2083 509.442 27.9062 508.9 27.9062C508.796 27.9062 508.681 28.0208 508.556 28.25C508.431 28.4583 508.14 28.6667 507.681 28.875C507.244 29.0833 506.973 29.2396 506.869 29.3438C506.765 29.4479 506.535 29.5833 506.181 29.75C505.848 29.8958 505.556 30.1354 505.306 30.4688L504.775 30.7188C504.608 31.1146 504.462 31.3333 504.337 31.375C504.212 31.4167 503.827 31.5208 503.181 31.6875C503.14 31.7083 503.035 31.8333 502.869 32.0625C502.702 32.2917 502.462 32.4062 502.15 32.4062C501.9 32.6562 501.65 32.9479 501.4 33.2812C501.317 33.2812 501.098 33.3646 500.744 33.5312L500.119 33.6875C499.952 33.8125 499.765 34.0104 499.556 34.2812C499.369 34.5521 499.004 34.6875 498.462 34.6875C498.15 34.6875 497.994 34.4375 497.994 33.9375C497.994 32.9167 498.348 32.1042 499.056 31.5C499.785 30.8958 500.317 30.5729 500.65 30.5312C500.983 30.4896 501.192 30.3646 501.275 30.1562C501.358 29.9479 501.556 29.7812 501.869 29.6562C502.202 29.5104 502.577 29.2083 502.994 28.75C503.431 28.2708 503.9 27.9479 504.4 27.7812L504.775 27.3438Z" fill="black"/>
</svg>
